<svg width="37" height="37" viewBox="0 0 37 37" fill="none" xmlns="http://www.w3.org/2000/svg">
<rect width="37" height="37" rx="7" fill="white"/>
<path d="M29.8355 18.7053L28.828 18.0817C28.8195 17.9837 28.8099 17.8859 28.7993 17.7882L29.6652 16.9806C29.7532 16.8985 29.7926 16.777 29.7688 16.6593C29.7574 16.6013 29.7314 16.5472 29.6931 16.5022C29.6549 16.4571 29.6057 16.4227 29.5503 16.4021L28.4435 15.9882C28.4157 15.8926 28.3868 15.7974 28.3568 15.7025L29.0472 14.7436C29.0818 14.6956 29.1035 14.6396 29.1104 14.5809C29.1172 14.5222 29.109 14.4627 29.0864 14.4081C29.0638 14.3535 29.0276 14.3056 28.9812 14.2689C28.9349 14.2322 28.8799 14.208 28.8216 14.1985L27.6545 14.0087C27.609 13.9206 27.5622 13.8332 27.5141 13.7466L28.0046 12.67C28.0293 12.6163 28.0398 12.5571 28.035 12.4982C28.0303 12.4393 28.0105 12.3825 27.9775 12.3334C27.9448 12.2842 27.9001 12.2442 27.8475 12.2172C27.7949 12.1903 27.7362 12.1773 27.6772 12.1796L26.4926 12.2208C26.4314 12.1442 26.3691 12.0685 26.3055 11.9938L26.5777 10.84C26.5913 10.7825 26.59 10.7224 26.5739 10.6655C26.5577 10.6087 26.5273 10.5568 26.4855 10.515C26.4437 10.4732 26.3919 10.4428 26.3351 10.4266C26.2782 10.4104 26.2181 10.4091 26.1606 10.4227L25.007 10.6946C24.9321 10.6312 24.8563 10.5688 24.7795 10.5075L24.821 9.323C24.8232 9.26392 24.8103 9.20527 24.7834 9.15262C24.7565 9.09997 24.7166 9.05509 24.6674 9.02224C24.6183 8.98939 24.5616 8.96967 24.5026 8.96496C24.4437 8.96025 24.3846 8.97071 24.3308 8.99533L23.2545 9.48603C23.1677 9.43814 23.0803 9.39128 22.9924 9.34547L22.8021 8.17812C22.7925 8.11985 22.7683 8.06498 22.7316 8.01871C22.6949 7.97244 22.647 7.93629 22.5925 7.9137C22.5379 7.8911 22.4785 7.88281 22.4198 7.8896C22.3612 7.89639 22.3052 7.91804 22.2573 7.95249L21.2977 8.64291C21.203 8.61275 21.1079 8.58393 21.0124 8.55646L20.5986 7.44942C20.5781 7.39394 20.5437 7.34464 20.4987 7.30623C20.4537 7.26782 20.3997 7.24158 20.3417 7.23001C20.2837 7.21845 20.2237 7.22194 20.1674 7.24016C20.1111 7.25838 20.0605 7.29071 20.0203 7.33408L19.2127 8.20059C19.1152 8.18982 19.0171 8.17996 18.9192 8.17193L18.2955 7.16417C18.2644 7.11397 18.221 7.07254 18.1694 7.04381C18.1179 7.01508 18.0598 7 18.0007 7C17.9417 7 17.8836 7.01508 17.832 7.04381C17.7805 7.07254 17.7371 7.11397 17.706 7.16417L17.0823 8.17193C16.9842 8.17996 16.886 8.18982 16.7886 8.20059L15.9808 7.33408C15.9405 7.29077 15.8899 7.25849 15.8336 7.24031C15.7773 7.22213 15.7174 7.21866 15.6594 7.23022C15.6014 7.24178 15.5474 7.268 15.5024 7.30637C15.4574 7.34474 15.423 7.39399 15.4025 7.44942L14.9886 8.55646C14.8927 8.58398 14.7978 8.6131 14.7031 8.64291L13.7437 7.95249C13.6958 7.91811 13.6398 7.89653 13.5811 7.88977C13.5225 7.88302 13.4631 7.89133 13.4086 7.91391C13.354 7.93649 13.3061 7.9726 13.2694 8.01883C13.2327 8.06506 13.2084 8.11988 13.1987 8.17812L13.0084 9.34547C12.9203 9.3911 12.8332 9.4381 12.7463 9.48603L11.67 8.99533C11.6163 8.97074 11.5571 8.96034 11.4982 8.96512C11.4394 8.9699 11.3827 8.98969 11.3336 9.02262C11.2336 9.08912 11.1752 9.20308 11.1798 9.323L11.221 10.5075C11.1444 10.5688 11.0685 10.6314 10.9936 10.6946L9.83998 10.4227C9.78243 10.4092 9.7224 10.4106 9.66555 10.4268C9.6087 10.443 9.55691 10.4734 9.51506 10.5151C9.4732 10.5569 9.44272 10.6087 9.42655 10.6655C9.41037 10.7224 9.40903 10.7825 9.42266 10.84L9.69437 11.9938C9.63116 12.0687 9.56894 12.1444 9.50773 12.2208L8.32318 12.1796C8.2641 12.1774 8.20545 12.1904 8.15281 12.2173C8.10017 12.2442 8.05529 12.2842 8.02245 12.3333C7.9896 12.3825 7.96989 12.4393 7.96517 12.4982C7.96046 12.5571 7.97091 12.6163 7.99552 12.67L8.48621 13.7466C8.43813 13.8333 8.39127 13.9206 8.34565 14.0087L7.17854 14.1985C7.12023 14.2081 7.06532 14.2323 7.01901 14.269C6.97271 14.3057 6.93654 14.3536 6.91395 14.4082C6.89135 14.4628 6.88306 14.5223 6.88988 14.5809C6.8967 14.6396 6.9184 14.6956 6.95291 14.7436L7.64332 15.7025C7.61328 15.7972 7.58416 15.8923 7.55665 15.9882L6.4496 16.4021C6.39416 16.4226 6.34491 16.4571 6.30656 16.5021C6.2682 16.5471 6.24202 16.6012 6.2305 16.6592C6.21898 16.7172 6.22251 16.7772 6.24076 16.8335C6.259 16.8897 6.29135 16.9404 6.33473 16.9806L7.20078 17.7882C7.19 17.8856 7.18037 17.9837 7.17212 18.0817L6.16459 18.7053C6.11428 18.7363 6.07274 18.7797 6.04393 18.8313C6.01512 18.8829 6 18.941 6 19.0001C6 19.0592 6.01512 19.1173 6.04393 19.1689C6.07274 19.2205 6.11428 19.2639 6.16459 19.2949L7.17212 19.9185C7.18037 20.0167 7.19 20.1146 7.20078 20.212L6.33473 21.0199C6.29153 21.0601 6.25934 21.1108 6.2412 21.167C6.22306 21.2232 6.21958 21.2831 6.23109 21.341C6.24259 21.3989 6.26871 21.4529 6.30695 21.498C6.34519 21.543 6.39429 21.5774 6.4496 21.5981L7.55665 22.012C7.58416 22.1079 7.61328 22.203 7.64332 22.2977L6.95291 23.2569C6.91832 23.3048 6.89657 23.3608 6.88972 23.4195C6.88288 23.4782 6.89117 23.5377 6.9138 23.5923C6.93644 23.6469 6.97267 23.6948 7.01905 23.7315C7.06542 23.7681 7.12041 23.7923 7.17876 23.8017L8.34565 23.9915C8.39128 24.08 8.43806 24.1672 8.48621 24.2541L7.99552 25.3302C7.97095 25.3839 7.96056 25.4431 7.96534 25.502C7.97012 25.5609 7.9899 25.6177 8.0228 25.6668C8.08976 25.767 8.20372 25.8255 8.32318 25.8206L9.50727 25.7791C9.56895 25.8562 9.63109 25.9316 9.69437 26.0066L9.42266 27.1606C9.39514 27.2776 9.42977 27.3998 9.51506 27.4849C9.59967 27.5704 9.72281 27.6046 9.83998 27.577L10.9936 27.3053C11.0685 27.3691 11.1444 27.431 11.221 27.492L11.1798 28.6768C11.1776 28.7358 11.1906 28.7944 11.2175 28.847C11.2444 28.8997 11.2843 28.9445 11.3335 28.9773C11.3826 29.0102 11.4393 29.0299 11.4982 29.0346C11.5571 29.0393 11.6163 29.0288 11.67 29.0042L12.7463 28.5137C12.833 28.5619 12.9201 28.6086 13.0084 28.6543L13.1987 29.8209C13.2083 29.8792 13.2326 29.9341 13.2693 29.9804C13.3059 30.0267 13.3538 30.0628 13.4084 30.0855C13.4629 30.1081 13.5224 30.1164 13.581 30.1097C13.6397 30.103 13.6957 30.0814 13.7437 30.047L14.7027 29.3562C14.7975 29.3864 14.8927 29.4154 14.9884 29.4431L15.4022 30.5496C15.4442 30.662 15.5414 30.7452 15.6595 30.7682C15.7174 30.7798 15.7774 30.7764 15.8336 30.7583C15.8898 30.7402 15.9404 30.7079 15.9805 30.6645L16.7883 29.7985C16.8858 29.8097 16.9839 29.8191 17.0821 29.8278L17.7058 30.8353C17.7369 30.8855 17.7803 30.9269 17.8319 30.9556C17.8834 30.9843 17.9415 30.9993 18.0005 30.9993C18.0595 30.9993 18.1176 30.9843 18.1692 30.9556C18.2207 30.9269 18.2641 30.8855 18.2953 30.8353L18.919 29.8278C19.0169 29.8193 19.1148 29.8095 19.2125 29.7985L20.02 30.6645C20.1019 30.7526 20.2234 30.792 20.3411 30.7682C20.399 30.7568 20.4531 30.7307 20.4982 30.6924C20.5432 30.6542 20.5777 30.605 20.5983 30.5496L21.0122 29.4431C21.1078 29.4154 21.2031 29.3864 21.2979 29.3562L22.2571 30.047C22.305 30.0815 22.361 30.1031 22.4197 30.1099C22.4784 30.1167 22.5378 30.1083 22.5924 30.0857C22.647 30.063 22.6949 30.0268 22.7315 29.9805C22.7682 29.9342 22.7924 29.8792 22.8019 29.8209L22.9922 28.6543C23.0802 28.6086 23.1674 28.5612 23.2543 28.5137L24.3306 29.0042C24.3843 29.0288 24.4434 29.0393 24.5023 29.0346C24.5613 29.0299 24.618 29.0102 24.6671 28.9773C24.7163 28.9445 24.7562 28.8997 24.7831 28.847C24.81 28.7944 24.823 28.7358 24.8208 28.6768L24.7795 27.492C24.8561 27.4308 24.932 27.3691 25.0068 27.3053L26.1604 27.577C26.2178 27.5908 26.2779 27.5895 26.3348 27.5734C26.3916 27.5572 26.4434 27.5268 26.485 27.4849C26.5703 27.3998 26.605 27.2776 26.5775 27.1606L26.3057 26.0066C26.369 25.9316 26.4314 25.8562 26.4924 25.7791L27.6769 25.8206C27.736 25.8229 27.7946 25.8099 27.8472 25.7829C27.8998 25.756 27.9446 25.716 27.9773 25.6668C28.0443 25.5668 28.0546 25.4395 28.0044 25.3302L27.5139 24.2541C27.5618 24.1672 27.6088 24.08 27.6542 23.9915L28.8213 23.8017C28.8797 23.7922 28.9346 23.7681 28.981 23.7314C29.0273 23.6947 29.0635 23.6468 29.0862 23.5922C29.1088 23.5376 29.117 23.4781 29.1102 23.4195C29.1033 23.3608 29.0816 23.3048 29.047 23.2569L28.3566 22.2977C28.3864 22.203 28.4155 22.1079 28.4432 22.012L29.5501 21.5981C29.6626 21.556 29.7456 21.459 29.7686 21.3409C29.7803 21.283 29.7769 21.223 29.7587 21.1668C29.7406 21.1106 29.7083 21.06 29.6649 21.0199L28.7991 20.212C28.8097 20.1146 28.8193 20.0165 28.8278 19.9185L29.8353 19.2949C29.8856 19.2639 29.9272 19.2205 29.956 19.1689C29.9848 19.1174 30 19.0593 30 19.0002C30 18.9411 29.9849 18.883 29.9561 18.8313C29.9273 18.7797 29.8858 18.7364 29.8355 18.7053ZM23.0922 27.0634C22.9072 27.0234 22.7457 26.9115 22.6432 26.7525C22.5407 26.5935 22.5054 26.4002 22.5453 26.2153C22.5648 26.1237 22.6021 26.0369 22.6552 25.9598C22.7082 25.8826 22.776 25.8168 22.8546 25.7659C22.9331 25.715 23.021 25.6801 23.1131 25.6632C23.2051 25.6463 23.2996 25.6478 23.3912 25.6675C23.5761 25.7073 23.7376 25.819 23.8403 25.9779C23.9429 26.1368 23.9782 26.33 23.9385 26.5149C23.8989 26.6998 23.7875 26.8615 23.6288 26.9643C23.4701 27.0672 23.2771 27.1028 23.0922 27.0634ZM22.7498 24.748C22.6663 24.7301 22.5801 24.7288 22.4961 24.7442C22.4122 24.7597 22.3321 24.7915 22.2604 24.838C22.1887 24.8844 22.1269 24.9445 22.0785 25.0148C22.0301 25.0851 21.996 25.1643 21.9782 25.2479L21.6205 26.9171C20.4832 27.4327 19.2486 27.6984 17.9999 27.6965C16.7231 27.6981 15.4614 27.4201 14.3035 26.882L13.946 25.2128C13.9282 25.1293 13.8941 25.0501 13.8457 24.9798C13.7973 24.9095 13.7355 24.8494 13.6639 24.803C13.5923 24.7566 13.5122 24.7248 13.4282 24.7094C13.3443 24.6939 13.2581 24.6952 13.1746 24.7131L11.7009 25.0296C11.4271 24.7476 11.1725 24.4476 10.939 24.1314H18.1095C18.1907 24.1314 18.2448 24.1167 18.2448 24.0429V21.5064C18.2448 21.4326 18.1907 21.4179 18.1095 21.4179H16.0124V19.8101H18.2806C18.4877 19.8101 19.3876 19.8692 19.6754 21.0196C19.7655 21.3734 19.9634 22.5243 20.0987 22.8927C20.2335 23.3059 20.7825 24.1314 21.3674 24.1314H24.9405C24.9811 24.1314 25.0244 24.1268 25.0701 24.1186C24.8222 24.4553 24.5506 24.7739 24.2574 25.072L22.7498 24.748ZM12.8323 27.0286C12.7407 27.0482 12.6462 27.0497 12.5541 27.0328C12.462 27.0159 12.3742 26.981 12.2956 26.9301C12.217 26.8792 12.1492 26.8134 12.096 26.7363C12.0429 26.6592 12.0055 26.5723 11.986 26.4808C11.9462 26.2958 11.9815 26.1025 12.084 25.9435C12.1866 25.7845 12.3481 25.6727 12.5331 25.6326C12.7163 25.5978 12.9058 25.636 13.0612 25.7392C13.2166 25.8423 13.3254 26.0021 13.3645 26.1844C13.4036 26.3668 13.3698 26.5572 13.2703 26.7149C13.1709 26.8727 13.0137 26.9852 12.8323 27.0286ZM10.1122 15.9983C10.1888 16.1712 10.1937 16.3676 10.1257 16.5441C10.0578 16.7207 9.9225 16.8631 9.74963 16.94C9.66405 16.978 9.57182 16.9987 9.47822 17.001C9.38462 17.0033 9.29149 16.9871 9.20415 16.9534C9.11681 16.9196 9.03698 16.869 8.96922 16.8044C8.90147 16.7398 8.84712 16.6624 8.80929 16.5768C8.73262 16.4038 8.72773 16.2075 8.7957 16.0309C8.86368 15.8544 8.99895 15.712 9.17181 15.6351C9.25739 15.5971 9.34962 15.5764 9.44322 15.5741C9.53682 15.5718 9.62995 15.5879 9.71729 15.6217C9.80463 15.6554 9.88446 15.706 9.95222 15.7707C10.02 15.8353 10.0743 15.9126 10.1122 15.9983ZM9.27614 17.9801L10.8113 17.2979C10.9689 17.2278 11.0922 17.098 11.1542 16.9371C11.2161 16.7761 11.2116 16.5971 11.1417 16.4394L10.8255 15.7245H12.069V21.3294H9.56024C9.33784 20.5465 9.22533 19.7366 9.22592 18.9227C9.22592 18.6042 9.24312 18.2894 9.27614 17.9801ZM16.0129 17.4357V15.7836H18.974C19.1269 15.7836 20.054 15.9604 20.054 16.6536C20.054 17.2291 19.3429 17.4355 18.7582 17.4355L16.0129 17.4357ZM26.7742 18.9227C26.7742 19.1419 26.7662 19.3588 26.7501 19.5741H25.8499C25.7598 19.5741 25.7236 19.6333 25.7236 19.7216V20.135C25.7236 21.1081 25.1749 21.3198 24.694 21.3737C24.2361 21.4253 23.7284 21.182 23.6659 20.9018C23.3957 19.3825 22.9456 19.058 22.2348 18.4974C23.1169 17.9372 24.0348 17.1108 24.0348 16.0047C24.0348 14.8103 23.216 14.058 22.6579 13.689C21.8748 13.1729 21.0078 13.0695 20.774 13.0695H11.4639C12.7264 11.6604 14.4374 10.6623 16.3726 10.2991L17.47 11.4504C17.5289 11.5122 17.5994 11.5618 17.6775 11.5963C17.7555 11.6308 17.8396 11.6496 17.9249 11.6515C18.0103 11.6535 18.0951 11.6386 18.1747 11.6077C18.2543 11.5768 18.327 11.5305 18.3886 11.4715L19.6165 10.297C22.1894 10.776 24.3677 12.3777 25.6231 14.575L24.7825 16.4736C24.7128 16.6313 24.7084 16.8103 24.7704 16.9712C24.8324 17.1321 24.9556 17.2619 25.1132 17.3321L26.7315 18.0509C26.7595 18.3382 26.7742 18.6285 26.7742 18.9227ZM17.4705 9.31979C17.5381 9.25507 17.6179 9.20433 17.7051 9.17047C17.7924 9.1366 17.8855 9.12028 17.9791 9.12243C18.0726 9.12458 18.1649 9.14517 18.2505 9.183C18.3361 9.22084 18.4134 9.27519 18.478 9.34295C18.6086 9.47996 18.6794 9.66319 18.675 9.8524C18.6706 10.0416 18.5912 10.2213 18.4544 10.3521C18.3868 10.4168 18.3071 10.4676 18.2198 10.5015C18.1325 10.5354 18.0394 10.5517 17.9458 10.5495C17.8522 10.5473 17.7599 10.5267 17.6743 10.4888C17.5887 10.4509 17.5114 10.3965 17.4469 10.3287C17.3164 10.1917 17.2457 10.0085 17.2501 9.81936C17.2545 9.63022 17.3338 9.45056 17.4705 9.31979ZM25.8123 16.0329C25.8501 15.9473 25.9045 15.87 25.9722 15.8054C26.0399 15.7408 26.1198 15.6902 26.2071 15.6565C26.2944 15.6227 26.3875 15.6066 26.4811 15.6089C26.5747 15.6112 26.6669 15.6319 26.7524 15.6699C26.9253 15.7468 27.0605 15.8892 27.1285 16.0658C27.1965 16.2423 27.1916 16.4387 27.1149 16.6116C27.0771 16.6973 27.0228 16.7747 26.955 16.8393C26.8873 16.9039 26.8074 16.9546 26.7201 16.9883C26.6328 17.0221 26.5396 17.0382 26.446 17.0359C26.3524 17.0336 26.2602 17.0129 26.1746 16.9748C26.0018 16.8977 25.8667 16.7553 25.7988 16.5787C25.7309 16.4022 25.7357 16.2059 25.8123 16.0329Z" fill="black"/>
</svg>
