<svg width="37" height="37" viewBox="0 0 37 37" fill="none" xmlns="http://www.w3.org/2000/svg">
<rect width="37" height="37" rx="7.4" fill="white"/>
<path d="M29.2335 14.0499C29.0625 14.1825 26.0437 15.8836 26.0437 19.6659C26.0437 24.0408 29.885 25.5885 30 25.6268C29.9823 25.7212 29.3898 27.7465 27.9747 29.8101C26.7129 31.6261 25.3952 33.4391 23.3905 33.4391C21.3858 33.4391 20.8699 32.2747 18.5557 32.2747C16.3005 32.2747 15.4986 33.4775 13.6649 33.4775C11.8312 33.4775 10.5518 31.7971 9.0807 29.7334C7.37674 27.3102 6 23.5455 6 19.9725C6 14.2415 9.72632 11.2021 13.3937 11.2021C15.3423 11.2021 16.9667 12.4815 18.1901 12.4815C19.3546 12.4815 21.1706 11.1254 23.3875 11.1254C24.2277 11.1254 27.2465 11.2021 29.2335 14.0499ZM22.3351 8.69918C23.2519 7.61135 23.9005 6.10195 23.9005 4.59256C23.9005 4.38325 23.8828 4.17099 23.8445 4C22.3528 4.05601 20.5781 4.99349 19.5079 6.23462C18.6677 7.18978 17.8836 8.69918 17.8836 10.2292C17.8836 10.4592 17.9219 10.6891 17.9396 10.7628C18.0339 10.7805 18.1872 10.8011 18.3405 10.8011C19.6789 10.8011 21.3622 9.90493 22.3351 8.69918Z" fill="black"/>
</svg>
