<svg width="254" height="168" viewBox="0 0 254 168" fill="none" xmlns="http://www.w3.org/2000/svg">
<rect width="254" height="168" rx="16" fill="white"/>
<g clip-path="url(#clip0_1472_146)">
<g clip-path="url(#clip1_1472_146)">
<g clip-path="url(#clip2_1472_146)">
<mask id="mask0_1472_146" style="mask-type:luminance" maskUnits="userSpaceOnUse" x="90" y="70" width="74" height="28">
<path d="M163.834 70H90.834V98H163.834V70Z" fill="white"/>
</mask>
<g mask="url(#mask0_1472_146)">
<path d="M108.162 70C105.311 70 102.577 71.1294 100.561 73.1397L93.9823 79.7005C91.9665 81.7108 90.834 84.4374 90.834 87.2804C90.834 93.2007 95.6465 98 101.583 98C104.434 98 107.168 96.8706 109.184 94.8603L113.734 90.3221C113.734 90.322 113.734 90.3222 113.734 90.3221L126.993 77.0995C127.956 76.1394 129.262 75.6 130.623 75.6C132.903 75.6 134.835 77.0816 135.505 79.1318L139.69 74.9588C137.781 71.9771 134.434 70 130.623 70C127.773 70 125.038 71.1294 123.023 73.1397L105.213 90.9005C104.25 91.8606 102.945 92.4 101.583 92.4C98.7478 92.4 96.4494 90.1079 96.4494 87.2804C96.4494 85.9226 96.9902 84.6204 97.953 83.6603L104.532 77.0995C105.495 76.1394 106.8 75.6 108.162 75.6C110.441 75.6 112.374 77.0817 113.044 79.1319L117.228 74.9589C115.319 71.9772 111.972 70 108.162 70Z" fill="#ACACAC"/>
<path d="M127.675 90.9005C126.712 91.8606 125.406 92.4 124.045 92.4C121.766 92.4 119.833 90.9188 119.163 88.8689L114.979 93.0419C116.888 96.0231 120.235 98 124.045 98C126.896 98 129.63 96.8706 131.645 94.8603L149.455 77.0995C150.418 76.1394 151.724 75.6 153.085 75.6C155.92 75.6 158.219 77.8921 158.219 80.7196C158.219 82.0774 157.678 83.3796 156.715 84.3397L150.136 90.9005C149.174 91.8606 147.868 92.4 146.506 92.4C144.227 92.4 142.294 90.9185 141.624 88.8685L137.44 93.0415C139.349 96.023 142.696 98 146.506 98C149.357 98 152.091 96.8706 154.107 94.8603L160.686 88.2995C162.702 86.2892 163.834 83.5626 163.834 80.7196C163.834 74.7993 159.022 70 153.085 70C150.234 70 147.5 71.1294 145.484 73.1397L127.675 90.9005Z" fill="#ACACAC"/>
</g>
</g>
</g>
</g>
<defs>
<clipPath id="clip0_1472_146">
<rect width="74" height="28" fill="white" transform="translate(90 70)"/>
</clipPath>
<clipPath id="clip1_1472_146">
<rect width="74" height="28" fill="white" transform="translate(90 70)"/>
</clipPath>
<clipPath id="clip2_1472_146">
<rect width="74" height="28" fill="white" transform="translate(90 70)"/>
</clipPath>
</defs>
</svg>
