<svg width="254" height="168" viewBox="0 0 254 168" fill="none" xmlns="http://www.w3.org/2000/svg">
<rect width="254" height="168" rx="16" fill="white"/>
<g clip-path="url(#clip0_1472_113)">
<g clip-path="url(#clip1_1472_113)">
<g clip-path="url(#clip2_1472_113)">
<mask id="mask0_1472_113" style="mask-type:luminance" maskUnits="userSpaceOnUse" x="87" y="68" width="80" height="32">
<path d="M167 68H87V100H167V68Z" fill="white"/>
</mask>
<g mask="url(#mask0_1472_113)">
<path d="M90.8161 71.388C91.0241 70.4008 92.0081 69.6 93.0105 69.6H98.4601L93.9281 91.0584H88.4785C87.4753 91.0584 86.8305 90.2584 87.0393 89.2704L90.8161 71.388ZM108.982 71.388C109.191 70.4008 110.174 69.6 111.176 69.6H116.626L112.094 91.0584H106.644C105.641 91.0584 104.996 90.2584 105.205 89.2704L108.982 71.388ZM145.314 71.388C145.522 70.4008 146.504 69.6 147.508 69.6H152.958L148.426 91.0584H142.975C141.972 91.0584 141.328 90.2584 141.537 89.2704L145.314 71.388ZM118.442 69.6H123.892C124.895 69.6 125.54 70.4 125.331 71.388L121.555 89.2704C121.347 90.2584 120.363 91.0584 119.36 91.0584H113.91L118.442 69.6ZM154.774 69.6H160.224C161.227 69.6 161.872 70.4 161.663 71.388L157.886 89.2704C157.678 90.2584 156.695 91.0584 155.692 91.0584H150.242L154.774 69.6ZM127.148 71.388C127.356 70.4008 128.339 69.6 129.342 69.6H134.792L130.259 91.0584H124.81C123.806 91.0584 123.162 90.2584 123.371 89.2704L127.148 71.388ZM136.608 69.6H142.058C143.062 69.6 143.706 70.4 143.497 71.388L137.832 98.212C137.623 99.1992 136.64 100 135.637 100H130.187L136.608 69.6ZM97.2553 83.9056H104.522L103.389 89.2704C103.18 90.2584 102.197 91.0584 101.194 91.0584H95.7441L97.2545 83.9064L97.2553 83.9056ZM122.616 92.8472H129.882L128.371 100H122.922C121.918 100 121.274 99.2 121.482 98.212L122.616 92.8472ZM142.339 94.5104L141.419 98.8672C141.379 99.0544 141.317 99.1056 141.126 99.1056H140.708C140.518 99.1056 140.476 99.0544 140.516 98.8672L141.436 94.5104C141.476 94.324 141.539 94.272 141.729 94.272H142.147C142.338 94.272 142.379 94.324 142.339 94.5104ZM143.549 97.4496H143.463C143.372 97.4496 143.34 97.4752 143.322 97.5656L143.047 98.8672C143.007 99.0544 142.943 99.1056 142.754 99.1056H142.334C142.145 99.1056 142.103 99.0544 142.143 98.8672L143.062 94.5104C143.103 94.324 143.166 94.272 143.356 94.272H144.22C145.215 94.272 145.592 94.6264 145.408 95.496L145.255 96.2248C145.071 97.0952 144.544 97.4496 143.549 97.4496ZM143.802 95.2904L143.562 96.4312C143.542 96.5216 143.562 96.5472 143.654 96.5472H143.792C144.112 96.5472 144.284 96.4184 144.354 96.0896L144.45 95.632C144.519 95.304 144.403 95.1744 144.082 95.1744H143.944C143.853 95.1744 143.821 95.2 143.802 95.2904ZM146.792 95.9928L147.472 96.7408C147.829 97.1272 147.879 97.3592 147.787 97.7912L147.763 97.9072C147.591 98.7192 147.182 99.1704 146.232 99.1704C145.283 99.1704 145.049 98.7904 145.268 97.752L145.295 97.624C145.335 97.4368 145.398 97.3848 145.588 97.3848H146.033C146.223 97.3848 146.265 97.4368 146.225 97.6232L146.165 97.9072C146.111 98.1648 146.194 98.268 146.423 98.268C146.652 98.268 146.777 98.172 146.826 97.94L146.852 97.8168C146.89 97.636 146.87 97.5464 146.673 97.3336L146.033 96.644C145.675 96.264 145.629 96.044 145.72 95.612L145.75 95.4712C145.922 94.6592 146.331 94.2072 147.28 94.2072C148.23 94.2072 148.464 94.588 148.245 95.6256L148.218 95.7544C148.178 95.9416 148.115 95.9928 147.925 95.9928H147.479C147.29 95.9928 147.248 95.9416 147.287 95.7544L147.347 95.4712C147.402 95.2128 147.319 95.1104 147.09 95.1104C146.861 95.1104 146.735 95.2064 146.687 95.4384L146.663 95.548C146.623 95.7352 146.644 95.8256 146.792 95.9928ZM150.626 94.5104C150.666 94.324 150.728 94.272 150.918 94.272H151.337C151.527 94.272 151.569 94.324 151.529 94.5104L150.844 97.7528C150.625 98.7904 150.23 99.1704 149.281 99.1704C148.332 99.1704 148.098 98.7904 148.317 97.752L149.002 94.5104C149.042 94.324 149.105 94.272 149.294 94.272H149.714C149.903 94.272 149.945 94.324 149.906 94.5104L149.188 97.9072C149.134 98.1648 149.223 98.268 149.472 98.268C149.714 98.268 149.854 98.1648 149.908 97.9072L150.626 94.5104ZM153.351 97.1336C153.353 97.1856 153.37 97.1976 153.402 97.1976C153.434 97.1976 153.458 97.1856 153.482 97.1336L154.613 94.44C154.668 94.304 154.734 94.272 154.898 94.272H155.533C155.722 94.272 155.764 94.324 155.725 94.5104L154.805 98.8672C154.765 99.0544 154.701 99.1056 154.511 99.1056H154.211C154.021 99.1056 153.979 99.0544 154.019 98.8672L154.46 96.7792C154.472 96.7216 154.462 96.708 154.423 96.708C154.396 96.708 154.367 96.7216 154.351 96.7664L153.437 98.8936C153.371 99.048 153.287 99.1056 153.098 99.1056H152.92C152.723 99.1056 152.664 99.048 152.664 98.8936L152.642 96.7656C152.638 96.7208 152.627 96.708 152.594 96.708C152.555 96.708 152.539 96.7216 152.527 96.7792L152.087 98.8672C152.047 99.0544 151.984 99.1056 151.794 99.1056H151.493C151.302 99.1056 151.261 99.0544 151.301 98.8672L152.221 94.5104C152.261 94.324 152.324 94.272 152.514 94.272H153.058C153.286 94.272 153.36 94.324 153.358 94.5496L153.351 97.1336ZM167 69.6C167 70.484 166.288 71.2 165.41 71.2C165.201 71.1994 164.994 71.1575 164.8 71.0767C164.607 70.996 164.432 70.8779 164.284 70.7293C164.137 70.5807 164.02 70.4045 163.94 70.2108C163.861 70.017 163.82 69.8095 163.821 69.6C163.821 68.716 164.533 68 165.41 68C166.288 68 167 68.716 167 69.6Z" fill="#ACACAC"/>
</g>
</g>
</g>
</g>
<defs>
<clipPath id="clip0_1472_113">
<rect width="80" height="32" fill="white" transform="translate(87 68)"/>
</clipPath>
<clipPath id="clip1_1472_113">
<rect width="80" height="32" fill="white" transform="translate(87 68)"/>
</clipPath>
<clipPath id="clip2_1472_113">
<rect width="80" height="32" fill="white" transform="translate(87 68)"/>
</clipPath>
</defs>
</svg>
