<svg width="254" height="168" viewBox="0 0 254 168" fill="none" xmlns="http://www.w3.org/2000/svg">
<rect width="254" height="168" rx="16" fill="white"/>
<g clip-path="url(#clip0_1472_132)">
<g clip-path="url(#clip1_1472_132)">
<g clip-path="url(#clip2_1472_132)">
<mask id="mask0_1472_132" style="mask-type:luminance" maskUnits="userSpaceOnUse" x="76" y="72" width="102" height="24">
<path d="M177.5 72H76.5V96H177.5V72Z" fill="white"/>
</mask>
<g mask="url(#mask0_1472_132)">
<path fill-rule="evenodd" clip-rule="evenodd" d="M82.4852 73.5V96H76.5V73.5H82.4852Z" fill="#ACACAC"/>
<path fill-rule="evenodd" clip-rule="evenodd" d="M85.4785 73.5H98.1971C102.329 73.5 105.678 76.8579 105.678 81C105.678 85.1422 102.329 88.5 98.1971 88.5H91.4637V96H85.4785V73.5ZM91.4637 82.5H98.1971C99.0235 82.5 99.6934 81.8284 99.6934 81C99.6934 80.1716 99.0235 79.5 98.1971 79.5H91.4637V82.5Z" fill="#ACACAC"/>
<path fill-rule="evenodd" clip-rule="evenodd" d="M128.122 73.5V85.125C128.122 87.8174 130.299 90 132.985 90C135.671 90 137.848 87.8174 137.848 85.125V73.5H143.833V85.125C143.833 91.1311 138.976 96 132.985 96C126.994 96 122.137 91.1311 122.137 85.125V73.5H128.122Z" fill="#ACACAC"/>
<path fill-rule="evenodd" clip-rule="evenodd" d="M107.923 84C107.923 78.201 112.612 73.5 118.397 73.5H119.893V79.5H118.397C115.918 79.5 113.908 81.5147 113.908 84V84.75C113.908 90.9632 108.884 96 102.686 96H101.938V90H102.686C105.578 90 107.923 87.6495 107.923 84.75V84Z" fill="#ACACAC"/>
<path d="M177.499 74.25C177.499 75.4926 176.494 76.5 175.254 76.5C174.014 76.5 173.01 75.4926 173.01 74.25C173.01 73.0074 174.014 72 175.254 72C176.494 72 177.499 73.0074 177.499 74.25Z" fill="#ACACAC"/>
<path d="M150.259 96L153.115 84.0109L155.238 91.2236C156.504 95.5255 162.583 95.5255 163.849 91.2236L165.972 84.0109L168.828 96H174.981L170.49 77.1477C169.422 72.6645 163.12 72.4985 161.819 76.9194L159.544 84.65L157.268 76.9194C155.967 72.4985 149.664 72.6645 148.596 77.1477L144.105 96H150.259Z" fill="#ACACAC"/>
</g>
</g>
</g>
</g>
<defs>
<clipPath id="clip0_1472_132">
<rect width="102" height="24" fill="white" transform="translate(76 72)"/>
</clipPath>
<clipPath id="clip1_1472_132">
<rect width="102" height="24" fill="white" transform="translate(76 72)"/>
</clipPath>
<clipPath id="clip2_1472_132">
<rect width="102" height="24" fill="white" transform="translate(76 72)"/>
</clipPath>
</defs>
</svg>
