<svg width="254" height="168" viewBox="0 0 254 168" fill="none" xmlns="http://www.w3.org/2000/svg">
<rect width="254" height="168" rx="16" fill="white"/>
<g clip-path="url(#clip0_1472_103)">
<g clip-path="url(#clip1_1472_103)">
<g clip-path="url(#clip2_1472_103)">
<mask id="mask0_1472_103" style="mask-type:luminance" maskUnits="userSpaceOnUse" x="74" y="72" width="107" height="24">
<path d="M180.166 72H74.166V96H180.166V72Z" fill="white"/>
</mask>
<g mask="url(#mask0_1472_103)">
<path fill-rule="evenodd" clip-rule="evenodd" d="M83.2001 88.8C82.4014 88.8 81.6355 88.4839 81.0708 87.9213C80.506 87.3587 80.1887 86.5956 80.1887 85.8V72H74.166V85.8C74.166 90.7704 78.2109 94.8 83.2001 94.8H89.8251V88.8H83.2001ZM101.268 78C100.557 78 99.8516 78.1397 99.194 78.411C98.5363 78.6824 97.9388 79.0802 97.4354 79.5816C96.9321 80.0831 96.5328 80.6784 96.2604 81.3335C95.988 81.9887 95.8478 82.6909 95.8478 83.4C95.8478 84.1091 95.988 84.8113 96.2604 85.4665C96.5328 86.1216 96.9321 86.7169 97.4354 87.2184C97.9388 87.7198 98.5363 88.1176 99.194 88.389C99.8516 88.6603 100.557 88.8 101.268 88.8C102.706 88.8 104.085 88.2311 105.101 87.2184C106.118 86.2057 106.689 84.8322 106.689 83.4C106.689 81.9678 106.118 80.5943 105.101 79.5816C104.085 78.5689 102.706 78 101.268 78ZM89.8251 83.4C89.8251 77.1042 94.9486 72 101.268 72C107.588 72 112.712 77.1042 112.712 83.4C112.712 89.6958 107.588 94.8 101.268 94.8C94.9486 94.8 89.8251 89.6958 89.8251 83.4ZM166.314 78C164.876 78 163.497 78.5689 162.481 79.5816C161.464 80.5943 160.893 81.9678 160.893 83.4C160.893 84.8322 161.464 86.2057 162.481 87.2184C163.497 88.2311 164.876 88.8 166.314 88.8C167.751 88.8 169.13 88.2311 170.147 87.2184C171.163 86.2057 171.734 84.8322 171.734 83.4C171.734 81.9678 171.163 80.5943 170.147 79.5816C169.13 78.5689 167.751 78 166.314 78ZM154.871 83.4C154.871 77.1042 159.994 72 166.314 72C172.633 72 177.757 77.1042 177.757 83.4C177.757 89.6958 172.633 94.8 166.314 94.8C159.994 94.8 154.871 89.6958 154.871 83.4ZM125.359 72C119.04 72 113.916 77.1042 113.916 83.4C113.916 89.6958 119.04 94.8 125.359 94.8H142.223C143.409 94.8 144.552 94.62 145.628 94.2864L148.848 96L152.322 89.5176C153.204 87.8674 153.666 86.0264 153.666 84.1566V83.4C153.666 77.1042 148.543 72 142.223 72H125.359ZM147.643 83.4C147.643 81.9678 147.072 80.5943 146.056 79.5816C145.039 78.5689 143.66 78 142.223 78H125.359C124.647 78 123.943 78.1397 123.285 78.411C122.627 78.6824 122.03 79.0802 121.526 79.5816C121.023 80.0831 120.624 80.6784 120.351 81.3335C120.079 81.9887 119.939 82.6909 119.939 83.4C119.939 84.1091 120.079 84.8113 120.351 85.4665C120.624 86.1216 121.023 86.7169 121.526 87.2184C122.03 87.7198 122.627 88.1176 123.285 88.389C123.943 88.6603 124.647 88.8 125.359 88.8H142.223C143.653 88.8 145.026 88.2369 146.041 87.2333C147.056 86.2296 147.632 84.8669 147.643 83.442V83.4Z" fill="#ACACAC"/>
<path d="M180.166 73.5C180.166 73.8978 180.007 74.2794 179.725 74.5607C179.442 74.842 179.059 75 178.66 75C178.261 75 177.878 74.842 177.595 74.5607C177.313 74.2794 177.154 73.8978 177.154 73.5C177.154 73.1022 177.313 72.7206 177.595 72.4393C177.878 72.158 178.261 72 178.66 72C179.059 72 179.442 72.158 179.725 72.4393C180.007 72.7206 180.166 73.1022 180.166 73.5Z" fill="#ACACAC"/>
</g>
</g>
</g>
</g>
<defs>
<clipPath id="clip0_1472_103">
<rect width="107" height="24" fill="white" transform="translate(73.5 72)"/>
</clipPath>
<clipPath id="clip1_1472_103">
<rect width="107" height="24" fill="white" transform="translate(73.5 72)"/>
</clipPath>
<clipPath id="clip2_1472_103">
<rect width="107" height="24" fill="white" transform="translate(73.5 72)"/>
</clipPath>
</defs>
</svg>
