<svg width="637" height="501" viewBox="0 0 637 501" fill="none" xmlns="http://www.w3.org/2000/svg">
<g style="mix-blend-mode:luminosity" filter="url(#filter0_d_44554_169608)">
<path d="M150.661 205.425V282.104L114.328 303.087V226.408L150.661 205.425Z" fill="url(#paint0_linear_44554_169608)"/>
<path d="M169.054 334.137V334.355L168.904 334.171V328.319L157.433 321.58V315.678L145.963 308.94V303.188L63.75 255.435V332.448L180.457 400.817L180.658 340.959L169.054 334.137Z" fill="url(#paint1_linear_44554_169608)"/>
<path d="M341.505 366.591L341.84 312.418L231.62 376.389V381.305L231.419 381.439L230.048 383.061L220.15 388.879V394.782L208.697 401.52V407.539L208.529 407.706V407.339L196.926 414.16V419.979L185.322 426.801V432.82L185.305 432.837V432.619L173.701 439.441V445.344L162.248 452.082V457.733L162.081 457.9L150.477 464.722V470.541L138.873 477.363V483.265L341.505 366.591Z" fill="url(#paint2_linear_44554_169608)"/>
<path d="M467.392 147.121V64.1721L390.178 109.233V192.182L467.392 147.121Z" fill="url(#paint3_linear_44554_169608)"/>
<path d="M371.92 164.661V164.861L371.77 164.694V158.842L360.3 152.087V146.202L348.83 139.447V133.695L297.549 103.498V214.989L383.34 267.657L383.524 171.483L371.92 164.661Z" fill="url(#paint4_linear_44554_169608)"/>
<path d="M502.472 84.4372V167.386L525.445 83.7851V0.83606L502.472 84.4372Z" fill="url(#paint5_linear_44554_169608)"/>
<path d="M380.648 14.0955V90.3564L416.982 111.34V35.0626L380.648 14.0955Z" fill="url(#paint6_linear_44554_169608)"/>
<path d="M467.394 147.121V64.1721L502.473 84.437V167.386L467.394 147.121Z" fill="url(#paint7_linear_44554_169608)"/>
<path d="M485.818 282.99V175.395L434.486 206.227V211.143L434.286 211.293L432.915 212.898L423.033 218.717V224.619L411.563 231.358V237.394L411.412 237.544V237.176L399.809 243.998V249.817H399.792L388.188 256.639V262.675V262.457L376.584 269.279V275.181L365.114 281.936V287.571L364.964 287.755L353.36 294.577V300.379L353.343 300.395L341.739 307.217V313.103L330.286 319.858V325.743L318.816 332.498V338.518L318.665 338.668V338.317L307.062 345.139L307.496 386.488L485.818 282.99Z" fill="url(#paint8_linear_44554_169608)"/>
<path d="M484.229 397.239V349.135L520.763 369.785V403.643L484.229 397.239Z" fill="url(#paint9_linear_44554_169608)"/>
<path d="M312.145 393.828V394.046L311.995 393.862V388.01L300.525 381.272V375.369L289.055 368.631V362.879L277.1 354.954V403.643L375.398 461.328L375.231 436.498L323.732 406.151L323.749 400.65L312.145 393.828Z" fill="url(#paint10_linear_44554_169608)"/>
<path d="M461.274 380.268V380.469L461.424 380.302V374.45L472.894 367.695V361.809L484.365 355.054L484.181 397.239L375.248 461.328L375.081 436.582L449.703 392.993L449.67 387.09L461.274 380.268Z" fill="url(#paint11_linear_44554_169608)"/>
<path d="M622.69 434.575V400.583L477.893 387.324V423.44L622.69 434.575Z" fill="url(#paint12_linear_44554_169608)"/>
<path d="M381.484 13.2595V25.5154L417.817 46.4993V34.2266L381.484 13.2595Z" fill="url(#paint13_linear_44554_169608)"/>
<path d="M391.014 108.397V120.653L468.228 75.592V63.3361L391.014 108.397Z" fill="url(#paint14_linear_44554_169608)"/>
<path d="M163.084 463.518L174.537 456.763V450.878L186.141 444.039V444.257H186.158V438.237L197.762 431.399V425.58L209.365 418.758V419.126L209.533 418.976V412.94L220.986 406.201V400.299L230.884 394.481L232.255 392.875L232.456 392.725V387.809L342.609 323.888L342.676 311.582L232.456 375.553V380.469L232.255 380.603L230.884 382.225L220.986 388.043V393.946L209.533 400.684V406.703L209.365 406.87V406.502L197.762 413.324V419.143L186.158 425.965V431.984L186.141 432.001V431.783L174.537 438.605V444.508L163.084 451.246V456.897L162.917 457.064L151.313 463.886V469.705L139.709 476.527V482.429L163.084 468.969V463.518Z" fill="url(#paint15_linear_44554_169608)"/>
<path d="M115.164 225.573V237.828L151.497 216.845V204.589L115.164 225.573Z" fill="url(#paint16_linear_44554_169608)"/>
<path d="M158.235 314.842V320.862L209.366 291.568V285.548L158.235 314.842Z" fill="url(#paint17_linear_44554_169608)"/>
<path d="M146.665 308.021L158.269 314.842L209.366 285.549L197.695 278.677L146.665 308.021Z" fill="url(#paint18_linear_44554_169608)"/>
<path d="M169.689 327.483V333.502L220.837 304.208V298.189L169.689 327.483Z" fill="url(#paint19_linear_44554_169608)"/>
<path d="M158.136 320.661L169.74 327.483L220.837 298.189L209.166 291.317L158.136 320.661Z" fill="url(#paint20_linear_44554_169608)"/>
<path d="M181.459 340.123V346.143L232.589 316.849V310.829L181.459 340.123Z" fill="url(#paint21_linear_44554_169608)"/>
<path d="M169.889 333.301L181.493 340.123L232.59 310.829L220.919 303.957L169.889 333.301Z" fill="url(#paint22_linear_44554_169608)"/>
<path d="M146.765 302.352V308.372L197.912 279.078V273.058L146.765 302.352Z" fill="url(#paint23_linear_44554_169608)"/>
<path d="M197.913 273.058L115.164 225.573L151.497 204.589L6.7002 191.33L29.6738 274.931L64.7528 254.666L146.799 302.352L197.913 273.058Z" fill="url(#paint24_linear_44554_169608)"/>
<path d="M174.589 438.605V444.624L123.441 415.33V409.311L174.589 438.605Z" fill="url(#paint25_linear_44554_169608)"/>
<path d="M186.142 431.783L174.538 438.605L123.441 409.311L135.112 402.439L186.142 431.783Z" fill="url(#paint26_linear_44554_169608)"/>
<path d="M163.12 451.245V457.265L111.973 427.971V421.952L163.12 451.245Z" fill="url(#paint27_linear_44554_169608)"/>
<path d="M174.69 444.423L163.086 451.245L111.973 421.951L123.66 415.079L174.69 444.423Z" fill="url(#paint28_linear_44554_169608)"/>
<path d="M151.365 463.886V469.905L100.218 440.611V434.592L151.365 463.886Z" fill="url(#paint29_linear_44554_169608)"/>
<path d="M162.919 457.064L151.315 463.886L100.218 434.592L111.889 427.72L162.919 457.064Z" fill="url(#paint30_linear_44554_169608)"/>
<path d="M139.744 476.526V482.546L88.5967 453.252V447.232L139.744 476.526Z" fill="url(#paint31_linear_44554_169608)"/>
<path d="M151.314 469.704L139.71 476.526L88.5967 447.232L100.284 440.36L151.314 469.704Z" fill="url(#paint32_linear_44554_169608)"/>
<path d="M221.038 388.043V394.062L169.891 364.768V358.749L221.038 388.043Z" fill="url(#paint33_linear_44554_169608)"/>
<path d="M232.591 381.221L220.988 388.043L169.891 358.749L181.561 351.877L232.591 381.221Z" fill="url(#paint34_linear_44554_169608)"/>
<path d="M209.567 400.683V406.703L158.42 377.409V371.39L209.567 400.683Z" fill="url(#paint35_linear_44554_169608)"/>
<path d="M221.138 393.861L209.534 400.683L158.42 371.389L170.107 364.517L221.138 393.861Z" fill="url(#paint36_linear_44554_169608)"/>
<path d="M197.814 413.324V419.343L146.667 390.049V384.03L197.814 413.324Z" fill="url(#paint37_linear_44554_169608)"/>
<path d="M209.368 406.502L197.764 413.324L146.667 384.03L158.338 377.158L209.368 406.502Z" fill="url(#paint38_linear_44554_169608)"/>
<path d="M186.193 425.964V431.984L135.046 402.69V396.671L186.193 425.964Z" fill="url(#paint39_linear_44554_169608)"/>
<path d="M197.763 419.143L186.16 425.964L135.046 396.671L146.733 389.799L197.763 419.143Z" fill="url(#paint40_linear_44554_169608)"/>
<path d="M232.492 375.553V381.572L181.361 352.261V346.242L232.492 375.553Z" fill="url(#paint41_linear_44554_169608)"/>
<path d="M342.678 311.581L232.458 375.553L181.361 346.242L291.648 283.107L342.678 311.581Z" fill="url(#paint42_linear_44554_169608)"/>
<path d="M361.103 145.366V151.385L412.25 122.075V116.055L361.103 145.366Z" fill="url(#paint43_linear_44554_169608)"/>
<path d="M349.532 138.527L361.136 145.366L412.25 116.055L400.562 109.183L349.532 138.527Z" fill="url(#paint44_linear_44554_169608)"/>
<path d="M372.573 158.007V164.026L423.704 134.715V128.696L372.573 158.007Z" fill="url(#paint45_linear_44554_169608)"/>
<path d="M361.003 151.184L372.607 158.006L423.704 128.696L412.033 121.824L361.003 151.184Z" fill="url(#paint46_linear_44554_169608)"/>
<path d="M384.327 170.646V176.666L435.474 147.355V141.336L384.327 170.646Z" fill="url(#paint47_linear_44554_169608)"/>
<path d="M372.756 163.825L384.36 170.647L435.473 141.336L423.786 134.481L372.756 163.825Z" fill="url(#paint48_linear_44554_169608)"/>
<path d="M349.633 132.859V138.878L400.78 109.584V102.729L349.633 132.859Z" fill="url(#paint49_linear_44554_169608)"/>
<path d="M381.484 13.2591L417.817 34.2263L298.385 102.662L349.666 132.859L468.229 63.3362L503.308 83.5844L526.282 0L381.484 13.2591Z" fill="url(#paint50_linear_44554_169608)"/>
<path d="M377.455 268.46V274.479L326.308 245.169V239.149L377.455 268.46Z" fill="url(#paint51_linear_44554_169608)"/>
<path d="M389.025 261.621L377.421 268.46L326.308 239.149L337.995 232.277L389.025 261.621Z" fill="url(#paint52_linear_44554_169608)"/>
<path d="M365.986 281.1V287.12L314.855 257.809V251.79L365.986 281.1Z" fill="url(#paint53_linear_44554_169608)"/>
<path d="M377.556 274.262L365.952 281.1L314.855 251.79L326.526 244.918L377.556 274.262Z" fill="url(#paint54_linear_44554_169608)"/>
<path d="M354.231 293.741V299.76L303.084 270.45V264.43L354.231 293.741Z" fill="url(#paint55_linear_44554_169608)"/>
<path d="M365.802 286.902L354.198 293.741L303.084 264.43L314.771 257.558L365.802 286.902Z" fill="url(#paint56_linear_44554_169608)"/>
<path d="M342.627 306.381V312.401L291.479 283.09V277.071L342.627 306.381Z" fill="url(#paint57_linear_44554_169608)"/>
<path d="M354.18 299.559L342.577 306.381L291.479 277.071L303.15 270.199L354.18 299.559Z" fill="url(#paint58_linear_44554_169608)"/>
<path d="M423.905 217.881V223.917L372.758 194.607V188.587L423.905 217.881Z" fill="url(#paint59_linear_44554_169608)"/>
<path d="M435.475 211.059L423.872 217.881L372.758 188.587L384.445 181.715L435.475 211.059Z" fill="url(#paint60_linear_44554_169608)"/>
<path d="M412.434 230.522V236.558L361.287 207.247V201.228L412.434 230.522Z" fill="url(#paint61_linear_44554_169608)"/>
<path d="M424.005 223.7L412.401 230.522L361.287 201.228L372.975 194.356L424.005 223.7Z" fill="url(#paint62_linear_44554_169608)"/>
<path d="M400.679 243.162V249.198L349.532 219.888V213.868L400.679 243.162Z" fill="url(#paint63_linear_44554_169608)"/>
<path d="M412.25 236.34L400.646 243.162L349.532 213.868L361.22 206.996L412.25 236.34Z" fill="url(#paint64_linear_44554_169608)"/>
<path d="M389.076 255.803V261.839L337.929 232.528V226.509L389.076 255.803Z" fill="url(#paint65_linear_44554_169608)"/>
<path d="M400.63 248.981L389.026 255.803L337.929 226.509L349.599 219.637L400.63 248.981Z" fill="url(#paint66_linear_44554_169608)"/>
<path d="M435.374 205.391V211.41L384.227 182.116V176.097L435.374 205.391Z" fill="url(#paint67_linear_44554_169608)"/>
<path d="M486.655 174.559L435.324 205.391L384.227 176.097L435.625 146.101L486.655 174.559Z" fill="url(#paint68_linear_44554_169608)"/>
<path d="M342.576 318.637L354.18 311.815L354.197 311.799V305.997L365.801 299.175L365.951 299.008V293.356L377.421 286.618V280.716L389.025 273.894V274.095V268.075L400.629 261.253L400.646 261.237V255.435L412.249 248.613V248.981L412.4 248.814V242.794L423.87 236.056V230.154L433.752 224.335L435.123 222.713L435.323 222.58V217.664L486.654 186.832V174.559L435.323 205.391V210.307L435.123 210.457L433.752 212.063L423.87 217.881V223.783L412.4 230.522V236.558L412.249 236.708V236.34L400.646 243.162V248.981H400.629L389.025 255.803V261.839V261.621L377.421 268.443V274.345L365.951 281.1V286.735L365.801 286.919L354.197 293.741V299.543L354.18 299.559L342.576 306.381V312.267V318.637Z" fill="url(#paint69_linear_44554_169608)"/>
<path d="M483.394 343.283V355.556L519.927 376.189V363.933L483.394 343.283Z" fill="url(#paint70_linear_44554_169608)"/>
<path d="M299.655 369.517V375.536L350.803 346.243V340.223L299.655 369.517Z" fill="url(#paint71_linear_44554_169608)"/>
<path d="M288.085 362.695L299.689 369.517L350.803 340.223L339.115 333.351L288.085 362.695Z" fill="url(#paint72_linear_44554_169608)"/>
<path d="M311.126 382.158V388.177L362.256 358.883V352.864L311.126 382.158Z" fill="url(#paint73_linear_44554_169608)"/>
<path d="M299.556 375.336L311.16 382.158L362.257 352.864L350.586 345.992L299.556 375.336Z" fill="url(#paint74_linear_44554_169608)"/>
<path d="M322.879 394.798V400.818L374.026 371.524V365.504L322.879 394.798Z" fill="url(#paint75_linear_44554_169608)"/>
<path d="M311.309 387.977L322.912 394.799L374.026 365.505L362.339 358.633L311.309 387.977Z" fill="url(#paint76_linear_44554_169608)"/>
<path d="M288.185 357.027V363.046L339.332 333.752V327.733L288.185 357.027Z" fill="url(#paint77_linear_44554_169608)"/>
<path d="M276.264 349.101L288.219 357.027L339.332 327.733L327.294 320.627L276.264 349.101Z" fill="url(#paint78_linear_44554_169608)"/>
<path d="M322.98 400.55L374.261 430.746L448.934 387.257L397.569 357.896L322.98 400.55Z" fill="url(#paint79_linear_44554_169608)"/>
<path d="M472.09 355.957V361.976L420.96 332.666V326.646L472.09 355.957Z" fill="url(#paint80_linear_44554_169608)"/>
<path d="M483.661 349.118L472.057 355.957L420.96 326.646L432.631 319.774L483.661 349.118Z" fill="url(#paint81_linear_44554_169608)"/>
<path d="M460.638 368.597V374.617L409.491 345.306V339.287L460.638 368.597Z" fill="url(#paint82_linear_44554_169608)"/>
<path d="M472.192 361.776L460.588 368.598L409.491 339.287L421.162 332.415L472.192 361.776Z" fill="url(#paint83_linear_44554_169608)"/>
<path d="M448.867 381.238V387.257L397.736 357.947V351.927L448.867 381.238Z" fill="url(#paint84_linear_44554_169608)"/>
<path d="M460.437 374.416L448.833 381.238L397.736 351.927L409.407 345.072L460.437 374.416Z" fill="url(#paint85_linear_44554_169608)"/>
<path d="M483.562 343.451V349.47L432.415 320.176V314.157L483.562 343.451Z" fill="url(#paint86_linear_44554_169608)"/>
<path d="M477.058 381.472L621.855 394.732L598.882 311.13L563.803 331.395L483.78 284.963L432.415 314.324L513.391 360.489L477.058 381.472Z" fill="url(#paint87_linear_44554_169608)"/>
<path d="M29.6738 274.931V287.187L64.7529 266.939V254.666L29.6738 274.931Z" fill="url(#paint88_linear_44554_169608)"/>
<path d="M146.799 320.36L158.269 327.115V333L169.723 339.755V345.607L169.89 345.774V345.574L181.444 352.362L181.494 340.123L169.89 333.301V333.519L169.723 333.335V327.482L158.269 320.744V314.842L146.799 308.104V302.352L64.5859 254.599V266.872L146.799 314.608V320.36Z" fill="url(#paint89_linear_44554_169608)"/>
<path d="M349.666 150.884L361.136 157.622V163.524L372.606 170.262V176.114L372.756 176.282V176.081L384.343 182.886L384.36 170.647L372.756 163.808V164.026L372.606 163.859V158.006L361.136 151.251V145.366L349.666 138.611V132.859L298.385 102.679V114.935L349.666 145.132V150.884Z" fill="url(#paint90_linear_44554_169608)"/>
<path d="M503.308 83.5844V95.8571L526.281 12.2559V0L503.308 83.5844Z" fill="url(#paint91_linear_44554_169608)"/>
<path d="M468.229 63.3361V75.592L503.309 95.8569V83.5843L468.229 63.3361Z" fill="url(#paint92_linear_44554_169608)"/>
<path d="M288.219 375.035L299.689 381.79V387.675L311.159 394.43V400.282L311.309 400.45V400.249L322.913 407.071L322.896 412.555L374.395 442.919V430.646L322.896 400.299L322.913 394.798L311.309 387.976V388.194L311.159 388.01V382.158L299.689 375.419V369.517L288.219 362.779V357.027L276.264 349.102V361.358L288.219 369.283V375.035Z" fill="url(#paint93_linear_44554_169608)"/>
<path d="M374.329 442.952L448.868 399.396L448.834 393.494L460.438 386.672V386.873L460.588 386.706V380.854L472.058 374.115V368.213L483.478 361.492L483.529 349.202L472.058 355.957V361.843L460.588 368.598V374.45L460.438 374.617V374.416L448.834 381.238L448.868 387.14L374.245 430.73L374.329 442.952Z" fill="url(#paint94_linear_44554_169608)"/>
<path d="M477.057 381.472V393.728L621.854 406.987V394.731L477.057 381.472Z" fill="url(#paint95_linear_44554_169608)"/>
<path d="M628.811 386.505C628.443 386.505 628.108 386.254 628.008 385.887L605.319 303.339L571.176 323.052C570.775 323.286 570.256 323.152 570.039 322.751C569.805 322.35 569.939 321.831 570.34 321.614L606.355 300.814L629.613 385.452C629.73 385.903 629.479 386.355 629.028 386.488C628.961 386.505 628.877 386.522 628.811 386.522V386.505Z" fill="#43E8E1"/>
<path d="M508.291 106.04L472.276 85.2397C471.874 85.0057 471.74 84.5041 471.975 84.1028C472.209 83.7015 472.71 83.5677 473.112 83.8018L507.254 103.515L529.944 20.9672C530.061 20.5157 530.529 20.2649 530.98 20.382C531.432 20.499 531.683 20.9672 531.565 21.4019L508.308 106.04H508.291Z" fill="#43E8E1"/>
<path d="M435.324 205.892L486.655 175.06L484.498 175.194L435.324 204.722L386.4 176.665L384.227 176.599L435.324 205.892Z" fill="url(#paint96_radial_44554_169608)"/>
<path d="M468.229 63.8375L503.308 84.0857L526.282 0.501282L525.579 0.568164L503.308 82.9153L468.229 62.6671L349.666 132.19L300.542 103.281L298.385 103.18L349.666 133.36L468.229 63.8375Z" fill="url(#paint97_radial_44554_169608)"/>
<path d="M340.486 312.534L327.294 320.293L329.417 319.875L342.677 312.083L340.486 312.534Z" fill="url(#paint98_radial_44554_169608)"/>
<path d="M434.622 314.909L432.415 314.825L511.201 359.753L513.391 359.819L434.622 314.909Z" fill="url(#paint99_radial_44554_169608)"/>
<path d="M480.802 381.154L477.057 381.974L621.854 395.233L621.135 393.995L480.802 381.154Z" fill="url(#paint100_radial_44554_169608)"/>
<path d="M337.175 328.284L288.218 356.358L277.083 348.967L232.456 374.884L183.533 346.827L181.359 346.743L232.456 376.054L277.083 350.138L288.218 357.528L339.332 328.234L337.175 328.284Z" fill="url(#paint101_radial_44554_169608)"/>
<path d="M374.261 430.077L325.137 401.151L322.98 401.051L374.261 431.248L448.934 387.758L446.76 387.842L374.261 430.077Z" fill="url(#paint102_radial_44554_169608)"/>
<path d="M147.752 206.093L115.164 224.903L117.338 224.82L151.497 205.09L147.752 206.093Z" fill="url(#paint103_radial_44554_169608)"/>
<path d="M195.722 273.627L146.799 301.683L64.7528 253.997L29.6738 274.262L7.41918 191.898L6.7002 191.831L29.6738 275.432L64.7528 255.167L146.799 302.854L197.913 273.56L195.722 273.627Z" fill="url(#paint104_radial_44554_169608)"/>
<path d="M156.312 332.883C155.058 335.391 151.547 342.263 152.216 344.303C152.901 346.343 156.078 347.095 157.616 347.095C159.155 347.095 156.312 332.883 156.312 332.883Z" fill="url(#paint105_linear_44554_169608)"/>
<path opacity="0.2" d="M146.766 418.139C150.009 420.062 154.524 419.159 159.038 416.517C163.553 413.876 168.753 410.632 172.498 409.445C176.243 408.258 178.885 406.719 177.865 405.432C176.845 404.161 170.358 402.874 162.182 406.285C154.005 409.696 140.696 414.545 146.749 418.139H146.766Z" fill="black"/>
<path d="M148.504 415.029C148.504 415.029 148.019 416.919 148.387 417.721C148.771 418.524 150.51 419.159 151.915 418.474C153.319 417.788 153.921 416.35 154.456 415.966C154.991 415.581 157.984 415.247 160.225 413.357C162.465 411.468 162.164 409.378 159.924 409.344C157.683 409.311 153.637 410.331 152.199 411.284C150.761 412.237 148.521 415.029 148.521 415.029H148.504Z" fill="#10054D"/>
<path d="M149.558 417.086C151.163 417.42 153.203 416.033 154.139 415.23C155.092 414.428 156.748 414.846 158.921 413.14C161.078 411.435 161.847 410.264 160.861 409.696C159.874 409.127 156.296 409.294 153.487 410.799C150.678 412.321 148.806 413.408 148.806 413.408C148.806 413.408 148.12 415.498 148.471 415.949C148.806 416.401 148.655 416.902 149.575 417.086H149.558Z" fill="url(#paint106_linear_44554_169608)"/>
<path d="M152.232 367.862C152.232 367.862 151.58 376.205 150.443 382.525C149.29 388.946 148.688 400.383 148.403 404.981C148.119 409.579 146.514 415.247 148.855 416.401C150.192 417.069 152.6 416.685 154.49 414.528C156.362 412.371 156.764 410.264 156.529 409.863C156.295 409.462 155.961 407.706 156.697 403.894C157.432 400.082 158.77 393.193 160.526 388.06C161.796 384.314 164.505 369.985 164.505 369.985L152.232 367.862Z" fill="url(#paint107_linear_44554_169608)"/>
<path d="M164.656 399.864C164.656 399.864 163.035 401.904 163.82 402.74C164.606 403.576 165.994 404.412 167.399 404.312C168.803 404.211 169.489 403.86 170.776 404.312C172.063 404.763 177.932 404.094 179.337 403.225C180.741 402.355 180.273 400.617 177.815 399.948C175.357 399.262 171.829 398.326 171.144 398.326C170.458 398.326 164.64 399.864 164.64 399.864H164.656Z" fill="#10054D"/>
<path d="M165.107 401.971C167.247 403.041 168.2 402.673 170.424 402.991C172.648 403.309 179.386 403.025 179.754 401.67C180.122 400.316 178.667 400.115 177.48 399.814C176.293 399.513 172.564 398.46 172.28 398.36C171.996 398.259 165.107 398.811 165.107 398.811C165.107 398.811 163.987 400.583 164.288 401.018C164.572 401.436 164.522 401.704 165.107 401.988V401.971Z" fill="url(#paint108_linear_44554_169608)"/>
<path d="M164.506 375.787L173.251 379.767C173.251 379.767 169.388 386.304 168.251 389.03C167.114 391.755 163.82 399.931 165.074 400.901C166.328 401.871 172.348 401.302 173.15 400.667C173.953 400.048 174.571 398.677 174.521 397.875C174.471 397.072 176.177 392.073 178.618 389.063C181.059 386.053 186.058 379.917 184.704 375.369C183.333 370.821 171.344 363.949 171.344 363.949L164.523 375.77L164.506 375.787Z" fill="url(#paint109_linear_44554_169608)"/>
<path d="M159.758 369.166C159.407 374.934 157.668 387.04 156.497 392.491C155.227 398.46 152.685 407.472 153.488 410.799C153.839 412.237 153.972 413.742 154.039 414.996C154.19 414.846 154.357 414.695 154.508 414.511C156.38 412.354 156.781 410.247 156.547 409.846C156.313 409.445 155.979 407.689 156.715 403.877C157.45 400.065 158.788 393.176 160.544 388.043C161.814 384.298 164.523 369.968 164.523 369.968L159.774 369.149L159.758 369.166Z" fill="#D1D3D4"/>
<path d="M164.506 375.787L173.251 379.766C173.251 379.766 169.388 386.304 168.251 389.029C167.114 391.755 163.82 399.931 165.074 400.901C165.559 401.269 166.746 401.419 168.067 401.419C168.201 398.393 168.669 393.427 170.141 390.701C172.364 386.605 178.233 379.967 178.233 379.967L167.164 371.189L164.506 375.787Z" fill="#D1D3D4"/>
<path d="M175.139 376.606C175.256 378.094 175.824 379.499 176.209 380.335C176.66 381.271 176.811 382.358 177.312 382.174C177.814 381.99 177.162 377.61 177.162 377.61L175.122 376.59L175.139 376.606Z" fill="url(#paint110_radial_44554_169608)"/>
<path d="M174.337 317.902C175.725 318.855 177.046 320.293 176.561 324.055C176.076 327.817 175.842 329.622 175.023 329.99C174.203 330.358 173.719 329.79 173.401 330.826C173.1 331.846 173.133 333.619 173.133 333.619L165.241 330.576C165.241 330.576 165.994 329.355 165.676 327.917C165.358 326.496 163.385 323.52 165.76 319.925C168.134 316.33 172.699 316.781 174.337 317.902Z" fill="url(#paint111_radial_44554_169608)"/>
<path d="M177.013 321.563C176.929 322.282 176.327 323.369 175.307 323.302C174.287 323.235 173.618 324.356 173.752 324.958C173.886 325.559 173.719 325.677 173.719 325.677C173.719 325.677 173.016 325.259 172.582 325.81C172.147 326.362 172.415 327.7 172.582 328.218C172.749 328.736 170.826 329.99 169.422 329.89C168.017 329.79 166.161 329.372 165.676 328.569C165.175 327.767 163.319 325.041 164.673 321.329C166.027 317.617 169.89 315.862 173.05 316.982C176.21 318.102 177.113 320.543 177.013 321.547V321.563Z" fill="url(#paint112_linear_44554_169608)"/>
<path d="M174.17 335.943C174.17 335.943 173.735 332.732 171.963 332.08C170.174 331.428 168.535 331.412 167.382 330.676C166.228 329.923 165.71 328.77 165.71 328.77C165.71 328.77 164.238 328.954 165.091 330.375C165.944 331.813 174.17 335.926 174.17 335.926V335.943Z" fill="url(#paint113_linear_44554_169608)"/>
<path d="M167.799 332.03C166.194 331.211 164.589 329.907 164.589 329.907C164.589 329.907 161.997 329.489 160.476 329.489C158.938 329.489 156.446 330.542 156.179 333.368C155.911 336.194 155.978 339.889 156.329 343.969C156.68 348.048 156.229 350.891 154.925 354.72C153.62 358.549 149.875 366.808 149.925 367.778C149.975 368.748 151.614 372.393 156.262 374.851C160.911 377.309 169.02 378.931 172.882 375.637C176.745 372.343 174.404 358.666 175.173 352.262C175.925 345.858 178.651 343.534 176.444 339.839C174.236 336.144 171.494 333.702 169.839 333C168.184 332.298 167.799 332.047 167.799 332.047V332.03Z" fill="url(#paint114_linear_44554_169608)"/>
<path d="M174.387 336.193C173.751 335.023 172.397 333.368 170.959 332.966C169.521 332.565 166.796 331.579 165.943 330.743C164.99 329.79 164.956 329.104 164.956 329.104L162.649 329.589C162.649 329.589 162.064 332.181 165.007 333.568C167.949 334.956 171.41 335.424 173.45 337.063C175.373 338.601 176.493 340.006 176.493 340.006L174.37 336.21L174.387 336.193Z" fill="#D1D3D4"/>
<path d="M174.388 336.193C173.752 335.023 172.398 333.368 170.96 332.966C169.522 332.565 166.797 331.579 165.944 330.743C164.991 329.79 164.957 329.104 164.957 329.104L162.65 329.589C162.65 329.589 162.366 331.729 165.292 333.134C168.218 334.538 172.197 335.391 173.936 337.13C175.675 338.885 176.494 340.006 176.494 340.006L174.371 336.21L174.388 336.193Z" fill="url(#paint115_linear_44554_169608)"/>
<path d="M162.883 329.522C162.883 329.957 162.984 331.746 165.542 332.95C168.485 334.338 172.447 335.207 174.186 336.946C174.838 337.598 175.357 338.166 175.758 338.635L176.51 339.972C176.51 339.972 175.674 338.852 173.952 337.096C172.213 335.341 168.25 334.488 165.308 333.1C162.365 331.712 162.666 329.556 162.666 329.556L162.9 329.505L162.883 329.522Z" fill="url(#paint116_radial_44554_169608)" style="mix-blend-mode:color-dodge"/>
<path d="M170.09 341.243C172.665 338.417 175.324 341.377 177.196 343.835C176.845 345.942 175.641 348.333 175.19 352.245C174.438 358.649 176.762 372.326 172.899 375.62C171.043 377.208 168.184 377.66 165.208 377.409C165.676 375.988 166.161 374.266 166.546 372.343C167.599 366.892 166.412 363.615 166.83 356.141C167.248 348.667 166.746 344.922 170.09 341.243Z" fill="#D1D3D4"/>
<path d="M164.572 321.647C165.174 322.316 166.261 323.169 168.2 323.837C170.224 324.54 172.314 324.506 173.835 324.339C173.752 324.556 173.718 324.774 173.752 324.958C173.885 325.559 173.718 325.677 173.718 325.677C173.718 325.677 173.016 325.259 172.581 325.81C172.146 326.362 172.414 327.7 172.581 328.218C172.732 328.736 170.826 329.99 169.421 329.89C168.017 329.79 166.161 329.372 165.676 328.569C165.191 327.783 163.435 325.192 164.589 321.63L164.572 321.647Z" fill="#D1D3D4"/>
<path d="M170.257 388.394V403.977L168.401 402.891V387.257L170.257 388.394Z" fill="url(#paint117_linear_44554_169608)"/>
<path d="M170.24 388.394V403.977L189.201 393.076V377.442L170.24 388.394Z" fill="url(#paint118_linear_44554_169608)"/>
<path d="M178.852 393.895V394.932C178.852 395.333 179.286 395.567 179.621 395.383L181.075 394.547C181.376 394.38 181.56 394.046 181.56 393.694V392.909C181.56 392.507 181.126 392.273 180.791 392.457L179.119 393.427C178.969 393.51 178.868 393.694 178.868 393.878L178.852 393.895Z" fill="url(#paint119_linear_44554_169608)"/>
<path d="M170.24 388.394V393.143C170.24 393.745 170.725 394.23 171.327 394.23H179.035C179.888 394.23 180.69 393.845 181.225 393.176L188.265 384.348C188.867 383.595 189.201 382.642 189.201 381.673V377.442L170.257 388.394H170.24Z" fill="url(#paint120_linear_44554_169608)"/>
<path d="M170.24 388.394V393.143C170.24 393.745 170.725 394.23 171.327 394.23H179.035C179.888 394.23 180.69 393.845 181.225 393.176L188.265 384.348C188.867 383.595 189.201 382.642 189.201 381.673V377.442L170.257 388.394H170.24Z" fill="url(#paint121_radial_44554_169608)" style="mix-blend-mode:color-dodge"/>
<path d="M189.201 377.442L170.241 388.394L168.401 387.257L187.362 376.322L189.201 377.442Z" fill="url(#paint122_linear_44554_169608)"/>
<path d="M177.364 378.88L179.805 377.459C180.407 377.108 180.942 377.091 181.343 377.325L181.945 377.626L181.862 378.094C181.912 378.262 181.929 378.462 181.929 378.68V380.268L181.377 380.586L181.226 381.355L180.591 381.037V379.599C180.591 378.93 180.123 378.663 179.521 378.997L177.598 380.118C177.013 380.452 176.528 381.271 176.528 381.957V383.395L175.943 383.729L175.842 384.465L175.207 384.147V382.559C175.207 381.204 176.16 379.566 177.331 378.897L177.364 378.88Z" fill="url(#paint123_linear_44554_169608)"/>
<path d="M182.563 378.997V380.586L181.242 381.355V379.917C181.242 379.248 180.774 378.964 180.172 379.315L178.249 380.435C177.664 380.77 177.179 381.589 177.179 382.274V383.712L175.858 384.481V382.893C175.858 381.539 176.811 379.9 177.982 379.231L180.423 377.81C181.593 377.125 182.546 377.676 182.546 379.014L182.563 378.997Z" fill="url(#paint124_linear_44554_169608)"/>
<path d="M170.207 393.644L170.057 388.478L168.401 387.257L170.291 388.093L183.266 380.887L170.475 388.394L170.207 393.644Z" fill="url(#paint125_radial_44554_169608)" style="mix-blend-mode:color-dodge"/>
<path d="M178.3 372.309C178.3 372.309 180.424 374.918 181.394 376.69C181.912 377.643 181.895 377.81 181.661 379.783C181.561 380.703 181.377 381.372 180.875 381.422C180.658 381.455 180.792 380.904 180.792 380.904C180.792 380.904 180.708 381.806 180.106 381.957C179.504 382.107 179.822 381.372 179.822 381.372C179.822 381.372 179.655 382.341 179.053 382.442C178.451 382.542 178.785 381.79 178.785 381.79C178.785 381.79 178.585 382.81 178.1 382.977C177.615 383.144 177.548 382.843 177.548 382.141C177.548 381.322 177.197 380.603 176.461 379.298C175.675 377.911 175.023 377.292 175.107 375.988C175.19 374.684 174.104 373.58 174.104 373.58L178.267 372.309H178.3Z" fill="url(#paint126_radial_44554_169608)"/>
<path d="M175.24 340.14C172.748 338.835 169.939 340.073 168.903 342.715C167.866 345.356 167.665 355.94 168.284 358.983C168.903 362.026 173.501 375.921 173.501 375.921C173.501 375.921 175.825 375.954 177.346 375.536C178.868 375.118 179.737 373.898 179.737 373.898C179.737 373.898 176.895 362.093 176.41 359.385C175.925 356.676 177.213 350.155 177.38 347.196C177.58 343.601 177.631 341.394 175.223 340.14H175.24Z" fill="url(#paint127_linear_44554_169608)"/>
<path d="M301.043 316.731L304.036 305.829L285.176 307.568L289.908 310.294L236.57 340.557L228.728 335.993L233.46 333.267L214.6 331.545L217.593 342.43L222.157 339.788L229.932 344.319L216.054 352.194L222.425 352.144L222.742 356.124L278.103 324.556L285.794 328.953L281.063 331.679L299.923 333.418L296.93 322.516L292.365 325.158L284.774 320.76L296.479 314.089L301.043 316.731Z" fill="url(#paint128_linear_44554_169608)"/>
<path d="M568.198 149.762L563.868 147.238L559.521 149.729L563.868 152.27L568.198 149.762Z" fill="#2AF6FF"/>
<path opacity="0.9" d="M563.869 158.022L559.84 160.33L563.869 162.67L567.882 160.346L563.869 158.022Z" fill="#3ACBF4"/>
<path opacity="0.8" d="M563.868 168.79L560.156 170.93L563.868 173.087L567.563 170.947L563.868 168.79Z" fill="#4B9FE9"/>
<path opacity="0.7" d="M563.869 179.574L560.491 181.514L563.869 183.487L567.23 181.547L563.869 179.574Z" fill="#5B74DF"/>
<path opacity="0.6" d="M563.869 190.359L560.81 192.115L563.869 193.904L566.912 192.131L563.869 190.359Z" fill="#6C48D4"/>
<path opacity="0.5" d="M566.594 202.732L563.868 201.144L561.126 202.716L563.868 204.304L566.594 202.732Z" fill="#7C1DC9"/>
<path d="M241.469 211.845L237.138 209.321L232.791 211.812L237.138 214.337L241.469 211.845Z" fill="#2AF6FF"/>
<path opacity="0.9" d="M237.138 220.088L233.125 222.412L237.138 224.753L241.151 222.429L237.138 220.088Z" fill="#3ACBF4"/>
<path opacity="0.8" d="M237.138 230.873L233.442 233.013L237.138 235.153L240.833 233.03L237.138 230.873Z" fill="#4B9FE9"/>
<path opacity="0.7" d="M237.138 241.657L233.761 243.597L237.138 245.57L240.516 243.63L237.138 241.657Z" fill="#5B74DF"/>
<path opacity="0.6" d="M237.137 252.442L234.077 254.198L237.137 255.97L240.197 254.215L237.137 252.442Z" fill="#6C48D4"/>
<path opacity="0.5" d="M239.863 264.815L237.138 263.227L234.396 264.798L237.138 266.387L239.863 264.815Z" fill="#7C1DC9"/>
</g>
<defs>
<filter id="filter0_d_44554_169608" x="0.000195503" y="0" width="636.341" height="500.965" filterUnits="userSpaceOnUse" color-interpolation-filters="sRGB">
<feFlood flood-opacity="0" result="BackgroundImageFix"/>
<feColorMatrix in="SourceAlpha" type="matrix" values="0 0 0 0 0 0 0 0 0 0 0 0 0 0 0 0 0 0 127 0" result="hardAlpha"/>
<feOffset dy="11"/>
<feGaussianBlur stdDeviation="3.35"/>
<feComposite in2="hardAlpha" operator="out"/>
<feColorMatrix type="matrix" values="0 0 0 0 0 0 0 0 0 0 0 0 0 0 0 0 0 0 0.25 0"/>
<feBlend mode="normal" in2="BackgroundImageFix" result="effect1_dropShadow_44554_169608"/>
<feBlend mode="normal" in="SourceGraphic" in2="effect1_dropShadow_44554_169608" result="shape"/>
</filter>
<linearGradient id="paint0_linear_44554_169608" x1="91.0201" y1="189.34" x2="200.437" y2="360.588" gradientUnits="userSpaceOnUse">
<stop offset="0.1" stop-color="#45108A"/>
<stop offset="1" stop-color="#7C1DC9"/>
</linearGradient>
<linearGradient id="paint1_linear_44554_169608" x1="132.871" y1="310.077" x2="99.431" y2="366.09" gradientUnits="userSpaceOnUse">
<stop offset="0.1" stop-color="#45108A"/>
<stop offset="1" stop-color="#7C1DC9"/>
</linearGradient>
<linearGradient id="paint2_linear_44554_169608" x1="229.212" y1="377.092" x2="250.531" y2="416.802" gradientUnits="userSpaceOnUse">
<stop offset="0.1" stop-color="#45108A"/>
<stop offset="1" stop-color="#7C1DC9"/>
</linearGradient>
<linearGradient id="paint3_linear_44554_169608" x1="410.175" y1="96.7431" x2="447.796" y2="160.28" gradientUnits="userSpaceOnUse">
<stop offset="0.1" stop-color="#45108A"/>
<stop offset="1" stop-color="#7C1DC9"/>
</linearGradient>
<linearGradient id="paint4_linear_44554_169608" x1="365.45" y1="143.209" x2="316.125" y2="226.81" gradientUnits="userSpaceOnUse">
<stop offset="0.1" stop-color="#45108A"/>
<stop offset="1" stop-color="#7C1DC9"/>
</linearGradient>
<linearGradient id="paint5_linear_44554_169608" x1="499.83" y1="78.2675" x2="524.074" y2="88.2997" gradientUnits="userSpaceOnUse">
<stop offset="0.1" stop-color="#45108A"/>
<stop offset="1" stop-color="#7C1DC9"/>
</linearGradient>
<linearGradient id="paint6_linear_44554_169608" x1="440.072" y1="-1.85564" x2="331.24" y2="168.49" gradientUnits="userSpaceOnUse">
<stop offset="0.1" stop-color="#45108A"/>
<stop offset="1" stop-color="#7C1DC9"/>
</linearGradient>
<linearGradient id="paint7_linear_44554_169608" x1="520.731" y1="18.1078" x2="442.698" y2="231.04" gradientUnits="userSpaceOnUse">
<stop offset="0.1" stop-color="#45108A"/>
<stop offset="1" stop-color="#7C1DC9"/>
</linearGradient>
<linearGradient id="paint8_linear_44554_169608" x1="373.341" y1="240.922" x2="420.575" y2="322.015" gradientUnits="userSpaceOnUse">
<stop offset="0.1" stop-color="#45108A"/>
<stop offset="1" stop-color="#7C1DC9"/>
</linearGradient>
<linearGradient id="paint9_linear_44554_169608" x1="576.659" y1="393.912" x2="424.655" y2="359.836" gradientUnits="userSpaceOnUse">
<stop offset="0.1" stop-color="#45108A"/>
<stop offset="1" stop-color="#7C1DC9"/>
</linearGradient>
<linearGradient id="paint10_linear_44554_169608" x1="329.233" y1="402.205" x2="307.915" y2="444.424" gradientUnits="userSpaceOnUse">
<stop offset="0.1" stop-color="#45108A"/>
<stop offset="1" stop-color="#7C1DC9"/>
</linearGradient>
<linearGradient id="paint11_linear_44554_169608" x1="426.212" y1="402.506" x2="439.17" y2="422.989" gradientUnits="userSpaceOnUse">
<stop offset="0.1" stop-color="#45108A"/>
<stop offset="1" stop-color="#7C1DC9"/>
</linearGradient>
<linearGradient id="paint12_linear_44554_169608" x1="551.462" y1="394.581" x2="548.954" y2="429.275" gradientUnits="userSpaceOnUse">
<stop offset="0.1" stop-color="#45108A"/>
<stop offset="1" stop-color="#7C1DC9"/>
</linearGradient>
<linearGradient id="paint13_linear_44554_169608" x1="407.267" y1="17.9578" x2="387.169" y2="49.4086" gradientUnits="userSpaceOnUse">
<stop offset="0.1" stop-color="#45108A"/>
<stop offset="1" stop-color="#7C1DC9"/>
</linearGradient>
<linearGradient id="paint14_linear_44554_169608" x1="401.063" y1="84.9888" x2="594.9" y2="132.541" gradientUnits="userSpaceOnUse">
<stop offset="0.1" stop-color="#45108A"/>
<stop offset="1" stop-color="#7C1DC9"/>
</linearGradient>
<linearGradient id="paint15_linear_44554_169608" x1="200.805" y1="379.098" x2="413.085" y2="473.183" gradientUnits="userSpaceOnUse">
<stop offset="0.1" stop-color="#45108A"/>
<stop offset="1" stop-color="#7C1DC9"/>
</linearGradient>
<linearGradient id="paint16_linear_44554_169608" x1="121.284" y1="224.82" x2="202.812" y2="200.409" gradientUnits="userSpaceOnUse">
<stop offset="0.1" stop-color="#45108A"/>
<stop offset="1" stop-color="#7C1DC9"/>
</linearGradient>
<linearGradient id="paint17_linear_44554_169608" x1="167.732" y1="308.02" x2="276.431" y2="275.466" gradientUnits="userSpaceOnUse">
<stop offset="0.1" stop-color="#45108A"/>
<stop offset="1" stop-color="#7C1DC9"/>
</linearGradient>
<linearGradient id="paint18_linear_44554_169608" x1="225.936" y1="205.459" x2="171.227" y2="309.726" gradientUnits="userSpaceOnUse">
<stop offset="0.1" stop-color="#45108A"/>
<stop offset="1" stop-color="#7C1DC9"/>
</linearGradient>
<linearGradient id="paint19_linear_44554_169608" x1="179.187" y1="320.661" x2="287.901" y2="288.107" gradientUnits="userSpaceOnUse">
<stop offset="0.1" stop-color="#45108A"/>
<stop offset="1" stop-color="#7C1DC9"/>
</linearGradient>
<linearGradient id="paint20_linear_44554_169608" x1="237.406" y1="218.099" x2="182.698" y2="322.366" gradientUnits="userSpaceOnUse">
<stop offset="0.1" stop-color="#45108A"/>
<stop offset="1" stop-color="#7C1DC9"/>
</linearGradient>
<linearGradient id="paint21_linear_44554_169608" x1="190.956" y1="333.301" x2="299.654" y2="300.747" gradientUnits="userSpaceOnUse">
<stop offset="0.1" stop-color="#45108A"/>
<stop offset="1" stop-color="#7C1DC9"/>
</linearGradient>
<linearGradient id="paint22_linear_44554_169608" x1="249.159" y1="230.739" x2="194.451" y2="335.007" gradientUnits="userSpaceOnUse">
<stop offset="0.1" stop-color="#45108A"/>
<stop offset="1" stop-color="#7C1DC9"/>
</linearGradient>
<linearGradient id="paint23_linear_44554_169608" x1="156.262" y1="295.53" x2="264.96" y2="262.976" gradientUnits="userSpaceOnUse">
<stop offset="0.1" stop-color="#45108A"/>
<stop offset="1" stop-color="#7C1DC9"/>
</linearGradient>
<linearGradient id="paint24_linear_44554_169608" x1="209.834" y1="27.2711" x2="80.6204" y2="273.51" gradientUnits="userSpaceOnUse">
<stop offset="0.1" stop-color="#45108A"/>
<stop offset="1" stop-color="#7C1DC9"/>
</linearGradient>
<linearGradient id="paint25_linear_44554_169608" x1="78.9656" y1="442.668" x2="222.174" y2="410.565" gradientUnits="userSpaceOnUse">
<stop offset="0.1" stop-color="#45108A"/>
<stop offset="1" stop-color="#7C1DC9"/>
</linearGradient>
<linearGradient id="paint26_linear_44554_169608" x1="167.85" y1="395.651" x2="152.969" y2="424.041" gradientUnits="userSpaceOnUse">
<stop offset="0.1" stop-color="#45108A"/>
<stop offset="1" stop-color="#7C1DC9"/>
</linearGradient>
<linearGradient id="paint27_linear_44554_169608" x1="67.4968" y1="455.308" x2="210.706" y2="423.205" gradientUnits="userSpaceOnUse">
<stop offset="0.1" stop-color="#45108A"/>
<stop offset="1" stop-color="#7C1DC9"/>
</linearGradient>
<linearGradient id="paint28_linear_44554_169608" x1="156.398" y1="408.291" x2="141.501" y2="436.682" gradientUnits="userSpaceOnUse">
<stop offset="0.1" stop-color="#45108A"/>
<stop offset="1" stop-color="#7C1DC9"/>
</linearGradient>
<linearGradient id="paint29_linear_44554_169608" x1="55.742" y1="467.949" x2="198.951" y2="435.846" gradientUnits="userSpaceOnUse">
<stop offset="0.1" stop-color="#45108A"/>
<stop offset="1" stop-color="#7C1DC9"/>
</linearGradient>
<linearGradient id="paint30_linear_44554_169608" x1="144.627" y1="420.931" x2="129.746" y2="449.322" gradientUnits="userSpaceOnUse">
<stop offset="0.1" stop-color="#45108A"/>
<stop offset="1" stop-color="#7C1DC9"/>
</linearGradient>
<linearGradient id="paint31_linear_44554_169608" x1="44.1209" y1="480.589" x2="187.33" y2="448.486" gradientUnits="userSpaceOnUse">
<stop offset="0.1" stop-color="#45108A"/>
<stop offset="1" stop-color="#7C1DC9"/>
</linearGradient>
<linearGradient id="paint32_linear_44554_169608" x1="133.022" y1="433.572" x2="118.125" y2="461.963" gradientUnits="userSpaceOnUse">
<stop offset="0.1" stop-color="#45108A"/>
<stop offset="1" stop-color="#7C1DC9"/>
</linearGradient>
<linearGradient id="paint33_linear_44554_169608" x1="125.415" y1="392.106" x2="268.624" y2="360.003" gradientUnits="userSpaceOnUse">
<stop offset="0.1" stop-color="#45108A"/>
<stop offset="1" stop-color="#7C1DC9"/>
</linearGradient>
<linearGradient id="paint34_linear_44554_169608" x1="214.3" y1="345.089" x2="199.419" y2="373.479" gradientUnits="userSpaceOnUse">
<stop offset="0.1" stop-color="#45108A"/>
<stop offset="1" stop-color="#7C1DC9"/>
</linearGradient>
<linearGradient id="paint35_linear_44554_169608" x1="113.944" y1="404.746" x2="257.153" y2="372.643" gradientUnits="userSpaceOnUse">
<stop offset="0.1" stop-color="#45108A"/>
<stop offset="1" stop-color="#7C1DC9"/>
</linearGradient>
<linearGradient id="paint36_linear_44554_169608" x1="202.846" y1="357.729" x2="187.948" y2="386.12" gradientUnits="userSpaceOnUse">
<stop offset="0.1" stop-color="#45108A"/>
<stop offset="1" stop-color="#7C1DC9"/>
</linearGradient>
<linearGradient id="paint37_linear_44554_169608" x1="102.191" y1="417.387" x2="245.4" y2="385.284" gradientUnits="userSpaceOnUse">
<stop offset="0.1" stop-color="#45108A"/>
<stop offset="1" stop-color="#7C1DC9"/>
</linearGradient>
<linearGradient id="paint38_linear_44554_169608" x1="191.076" y1="370.37" x2="176.195" y2="398.76" gradientUnits="userSpaceOnUse">
<stop offset="0.1" stop-color="#45108A"/>
<stop offset="1" stop-color="#7C1DC9"/>
</linearGradient>
<linearGradient id="paint39_linear_44554_169608" x1="90.5701" y1="430.027" x2="233.779" y2="397.925" gradientUnits="userSpaceOnUse">
<stop offset="0.1" stop-color="#45108A"/>
<stop offset="1" stop-color="#7C1DC9"/>
</linearGradient>
<linearGradient id="paint40_linear_44554_169608" x1="179.472" y1="383.01" x2="164.574" y2="411.401" gradientUnits="userSpaceOnUse">
<stop offset="0.1" stop-color="#45108A"/>
<stop offset="1" stop-color="#7C1DC9"/>
</linearGradient>
<linearGradient id="paint41_linear_44554_169608" x1="136.869" y1="379.616" x2="280.078" y2="347.513" gradientUnits="userSpaceOnUse">
<stop offset="0.1" stop-color="#45108A"/>
<stop offset="1" stop-color="#7C1DC9"/>
</linearGradient>
<linearGradient id="paint42_linear_44554_169608" x1="311.495" y1="146.987" x2="250.182" y2="372.426" gradientUnits="userSpaceOnUse">
<stop offset="0.1" stop-color="#45108A"/>
<stop offset="1" stop-color="#7C1DC9"/>
</linearGradient>
<linearGradient id="paint43_linear_44554_169608" x1="370.6" y1="138.527" x2="479.298" y2="105.99" gradientUnits="userSpaceOnUse">
<stop offset="0.1" stop-color="#45108A"/>
<stop offset="1" stop-color="#7C1DC9"/>
</linearGradient>
<linearGradient id="paint44_linear_44554_169608" x1="428.82" y1="35.9653" x2="374.094" y2="140.233" gradientUnits="userSpaceOnUse">
<stop offset="0.1" stop-color="#45108A"/>
<stop offset="1" stop-color="#7C1DC9"/>
</linearGradient>
<linearGradient id="paint45_linear_44554_169608" x1="382.07" y1="151.168" x2="490.769" y2="118.631" gradientUnits="userSpaceOnUse">
<stop offset="0.1" stop-color="#45108A"/>
<stop offset="1" stop-color="#7C1DC9"/>
</linearGradient>
<linearGradient id="paint46_linear_44554_169608" x1="440.274" y1="48.6057" x2="385.565" y2="152.873" gradientUnits="userSpaceOnUse">
<stop offset="0.1" stop-color="#45108A"/>
<stop offset="1" stop-color="#7C1DC9"/>
</linearGradient>
<linearGradient id="paint47_linear_44554_169608" x1="393.824" y1="163.808" x2="502.522" y2="131.27" gradientUnits="userSpaceOnUse">
<stop offset="0.1" stop-color="#45108A"/>
<stop offset="1" stop-color="#7C1DC9"/>
</linearGradient>
<linearGradient id="paint48_linear_44554_169608" x1="452.043" y1="61.2466" x2="397.318" y2="165.514" gradientUnits="userSpaceOnUse">
<stop offset="0.1" stop-color="#45108A"/>
<stop offset="1" stop-color="#7C1DC9"/>
</linearGradient>
<linearGradient id="paint49_linear_44554_169608" x1="391.316" y1="124.75" x2="525.914" y2="157.772" gradientUnits="userSpaceOnUse">
<stop offset="0.1" stop-color="#45108A"/>
<stop offset="1" stop-color="#7C1DC9"/>
</linearGradient>
<linearGradient id="paint50_linear_44554_169608" x1="445.122" y1="-82.2803" x2="403.07" y2="89.052" gradientUnits="userSpaceOnUse">
<stop offset="0.1" stop-color="#45108A"/>
<stop offset="1" stop-color="#7C1DC9"/>
</linearGradient>
<linearGradient id="paint51_linear_44554_169608" x1="281.832" y1="272.506" x2="425.041" y2="240.403" gradientUnits="userSpaceOnUse">
<stop offset="0.1" stop-color="#45108A"/>
<stop offset="1" stop-color="#7C1DC9"/>
</linearGradient>
<linearGradient id="paint52_linear_44554_169608" x1="370.733" y1="225.489" x2="355.836" y2="253.88" gradientUnits="userSpaceOnUse">
<stop offset="0.1" stop-color="#45108A"/>
<stop offset="1" stop-color="#7C1DC9"/>
</linearGradient>
<linearGradient id="paint53_linear_44554_169608" x1="270.363" y1="285.163" x2="413.572" y2="253.044" gradientUnits="userSpaceOnUse">
<stop offset="0.1" stop-color="#45108A"/>
<stop offset="1" stop-color="#7C1DC9"/>
</linearGradient>
<linearGradient id="paint54_linear_44554_169608" x1="359.264" y1="238.129" x2="344.367" y2="266.52" gradientUnits="userSpaceOnUse">
<stop offset="0.1" stop-color="#45108A"/>
<stop offset="1" stop-color="#7C1DC9"/>
</linearGradient>
<linearGradient id="paint55_linear_44554_169608" x1="258.608" y1="297.804" x2="401.817" y2="265.701" gradientUnits="userSpaceOnUse">
<stop offset="0.1" stop-color="#45108A"/>
<stop offset="1" stop-color="#7C1DC9"/>
</linearGradient>
<linearGradient id="paint56_linear_44554_169608" x1="347.51" y1="250.77" x2="332.612" y2="279.161" gradientUnits="userSpaceOnUse">
<stop offset="0.1" stop-color="#45108A"/>
<stop offset="1" stop-color="#7C1DC9"/>
</linearGradient>
<linearGradient id="paint57_linear_44554_169608" x1="247.004" y1="310.444" x2="390.212" y2="278.341" gradientUnits="userSpaceOnUse">
<stop offset="0.1" stop-color="#45108A"/>
<stop offset="1" stop-color="#7C1DC9"/>
</linearGradient>
<linearGradient id="paint58_linear_44554_169608" x1="335.888" y1="263.41" x2="320.991" y2="291.801" gradientUnits="userSpaceOnUse">
<stop offset="0.1" stop-color="#45108A"/>
<stop offset="1" stop-color="#7C1DC9"/>
</linearGradient>
<linearGradient id="paint59_linear_44554_169608" x1="328.282" y1="221.944" x2="471.491" y2="189.841" gradientUnits="userSpaceOnUse">
<stop offset="0.1" stop-color="#45108A"/>
<stop offset="1" stop-color="#7C1DC9"/>
</linearGradient>
<linearGradient id="paint60_linear_44554_169608" x1="417.183" y1="174.927" x2="402.286" y2="203.318" gradientUnits="userSpaceOnUse">
<stop offset="0.1" stop-color="#45108A"/>
<stop offset="1" stop-color="#7C1DC9"/>
</linearGradient>
<linearGradient id="paint61_linear_44554_169608" x1="316.811" y1="234.585" x2="460.02" y2="202.482" gradientUnits="userSpaceOnUse">
<stop offset="0.1" stop-color="#45108A"/>
<stop offset="1" stop-color="#7C1DC9"/>
</linearGradient>
<linearGradient id="paint62_linear_44554_169608" x1="405.713" y1="187.567" x2="390.815" y2="215.958" gradientUnits="userSpaceOnUse">
<stop offset="0.1" stop-color="#45108A"/>
<stop offset="1" stop-color="#7C1DC9"/>
</linearGradient>
<linearGradient id="paint63_linear_44554_169608" x1="305.056" y1="247.225" x2="448.265" y2="215.122" gradientUnits="userSpaceOnUse">
<stop offset="0.1" stop-color="#45108A"/>
<stop offset="1" stop-color="#7C1DC9"/>
</linearGradient>
<linearGradient id="paint64_linear_44554_169608" x1="393.958" y1="200.208" x2="379.06" y2="228.599" gradientUnits="userSpaceOnUse">
<stop offset="0.1" stop-color="#45108A"/>
<stop offset="1" stop-color="#7C1DC9"/>
</linearGradient>
<linearGradient id="paint65_linear_44554_169608" x1="293.453" y1="259.866" x2="436.662" y2="227.763" gradientUnits="userSpaceOnUse">
<stop offset="0.1" stop-color="#45108A"/>
<stop offset="1" stop-color="#7C1DC9"/>
</linearGradient>
<linearGradient id="paint66_linear_44554_169608" x1="382.338" y1="212.848" x2="367.44" y2="241.239" gradientUnits="userSpaceOnUse">
<stop offset="0.1" stop-color="#45108A"/>
<stop offset="1" stop-color="#7C1DC9"/>
</linearGradient>
<linearGradient id="paint67_linear_44554_169608" x1="339.751" y1="209.454" x2="482.96" y2="177.351" gradientUnits="userSpaceOnUse">
<stop offset="0.1" stop-color="#45108A"/>
<stop offset="1" stop-color="#7C1DC9"/>
</linearGradient>
<linearGradient id="paint68_linear_44554_169608" x1="485.384" y1="80.1566" x2="428.184" y2="189.173" gradientUnits="userSpaceOnUse">
<stop offset="0.1" stop-color="#45108A"/>
<stop offset="1" stop-color="#7C1DC9"/>
</linearGradient>
<linearGradient id="paint69_linear_44554_169608" x1="386.634" y1="234.2" x2="529.625" y2="297.57" gradientUnits="userSpaceOnUse">
<stop offset="0.1" stop-color="#45108A"/>
<stop offset="1" stop-color="#7C1DC9"/>
</linearGradient>
<linearGradient id="paint70_linear_44554_169608" x1="568.633" y1="374.751" x2="431.711" y2="344.069" gradientUnits="userSpaceOnUse">
<stop offset="0.1" stop-color="#45108A"/>
<stop offset="1" stop-color="#7C1DC9"/>
</linearGradient>
<linearGradient id="paint71_linear_44554_169608" x1="309.152" y1="362.695" x2="417.851" y2="330.141" gradientUnits="userSpaceOnUse">
<stop offset="0.1" stop-color="#45108A"/>
<stop offset="1" stop-color="#7C1DC9"/>
</linearGradient>
<linearGradient id="paint72_linear_44554_169608" x1="367.372" y1="260.134" x2="312.647" y2="364.401" gradientUnits="userSpaceOnUse">
<stop offset="0.1" stop-color="#45108A"/>
<stop offset="1" stop-color="#7C1DC9"/>
</linearGradient>
<linearGradient id="paint73_linear_44554_169608" x1="320.623" y1="375.336" x2="429.321" y2="342.782" gradientUnits="userSpaceOnUse">
<stop offset="0.1" stop-color="#45108A"/>
<stop offset="1" stop-color="#7C1DC9"/>
</linearGradient>
<linearGradient id="paint74_linear_44554_169608" x1="378.826" y1="272.774" x2="324.118" y2="377.042" gradientUnits="userSpaceOnUse">
<stop offset="0.1" stop-color="#45108A"/>
<stop offset="1" stop-color="#7C1DC9"/>
</linearGradient>
<linearGradient id="paint75_linear_44554_169608" x1="332.376" y1="387.976" x2="441.074" y2="355.422" gradientUnits="userSpaceOnUse">
<stop offset="0.1" stop-color="#45108A"/>
<stop offset="1" stop-color="#7C1DC9"/>
</linearGradient>
<linearGradient id="paint76_linear_44554_169608" x1="390.596" y1="285.415" x2="335.871" y2="389.682" gradientUnits="userSpaceOnUse">
<stop offset="0.1" stop-color="#45108A"/>
<stop offset="1" stop-color="#7C1DC9"/>
</linearGradient>
<linearGradient id="paint77_linear_44554_169608" x1="297.682" y1="350.205" x2="406.397" y2="317.651" gradientUnits="userSpaceOnUse">
<stop offset="0.1" stop-color="#45108A"/>
<stop offset="1" stop-color="#7C1DC9"/>
</linearGradient>
<linearGradient id="paint78_linear_44554_169608" x1="356.521" y1="159.243" x2="295.208" y2="384.682" gradientUnits="userSpaceOnUse">
<stop offset="0.1" stop-color="#45108A"/>
<stop offset="1" stop-color="#7C1DC9"/>
</linearGradient>
<linearGradient id="paint79_linear_44554_169608" x1="457.495" y1="257.575" x2="375.616" y2="413.608" gradientUnits="userSpaceOnUse">
<stop offset="0.1" stop-color="#45108A"/>
<stop offset="1" stop-color="#7C1DC9"/>
</linearGradient>
<linearGradient id="paint80_linear_44554_169608" x1="376.467" y1="360.02" x2="519.693" y2="327.917" gradientUnits="userSpaceOnUse">
<stop offset="0.1" stop-color="#45108A"/>
<stop offset="1" stop-color="#7C1DC9"/>
</linearGradient>
<linearGradient id="paint81_linear_44554_169608" x1="404.39" y1="246.557" x2="459.099" y2="350.824" gradientUnits="userSpaceOnUse">
<stop offset="0.1" stop-color="#45108A"/>
<stop offset="1" stop-color="#7C1DC9"/>
</linearGradient>
<linearGradient id="paint82_linear_44554_169608" x1="365.015" y1="372.66" x2="508.224" y2="340.558" gradientUnits="userSpaceOnUse">
<stop offset="0.1" stop-color="#45108A"/>
<stop offset="1" stop-color="#7C1DC9"/>
</linearGradient>
<linearGradient id="paint83_linear_44554_169608" x1="392.921" y1="259.197" x2="447.63" y2="363.465" gradientUnits="userSpaceOnUse">
<stop offset="0.1" stop-color="#45108A"/>
<stop offset="1" stop-color="#7C1DC9"/>
</linearGradient>
<linearGradient id="paint84_linear_44554_169608" x1="353.244" y1="385.301" x2="496.469" y2="353.198" gradientUnits="userSpaceOnUse">
<stop offset="0.1" stop-color="#45108A"/>
<stop offset="1" stop-color="#7C1DC9"/>
</linearGradient>
<linearGradient id="paint85_linear_44554_169608" x1="381.167" y1="271.837" x2="435.875" y2="376.105" gradientUnits="userSpaceOnUse">
<stop offset="0.1" stop-color="#45108A"/>
<stop offset="1" stop-color="#7C1DC9"/>
</linearGradient>
<linearGradient id="paint86_linear_44554_169608" x1="387.939" y1="347.514" x2="531.148" y2="315.411" gradientUnits="userSpaceOnUse">
<stop offset="0.1" stop-color="#45108A"/>
<stop offset="1" stop-color="#7C1DC9"/>
</linearGradient>
<linearGradient id="paint87_linear_44554_169608" x1="549.457" y1="263.528" x2="525.547" y2="360.99" gradientUnits="userSpaceOnUse">
<stop offset="0.1" stop-color="#45108A"/>
<stop offset="1" stop-color="#7C1DC9"/>
</linearGradient>
<linearGradient id="paint88_linear_44554_169608" x1="35.5426" y1="274.429" x2="114.479" y2="250.787" gradientUnits="userSpaceOnUse">
<stop offset="0.1" stop-color="#45108A"/>
<stop offset="1" stop-color="#7C1DC9"/>
</linearGradient>
<linearGradient id="paint89_linear_44554_169608" x1="-30.2512" y1="337.832" x2="283.103" y2="267.591" gradientUnits="userSpaceOnUse">
<stop offset="0.1" stop-color="#45108A"/>
<stop offset="1" stop-color="#7C1DC9"/>
</linearGradient>
<linearGradient id="paint90_linear_44554_169608" x1="229.28" y1="167.905" x2="458.447" y2="116.54" gradientUnits="userSpaceOnUse">
<stop offset="0.1" stop-color="#45108A"/>
<stop offset="1" stop-color="#7C1DC9"/>
</linearGradient>
<linearGradient id="paint91_linear_44554_169608" x1="513.691" y1="47.6861" x2="643.474" y2="74.8567" gradientUnits="userSpaceOnUse">
<stop offset="0.1" stop-color="#45108A"/>
<stop offset="1" stop-color="#7C1DC9"/>
</linearGradient>
<linearGradient id="paint92_linear_44554_169608" x1="495.784" y1="52.2505" x2="478.813" y2="98.5823" gradientUnits="userSpaceOnUse">
<stop offset="0.1" stop-color="#45108A"/>
<stop offset="1" stop-color="#7C1DC9"/>
</linearGradient>
<linearGradient id="paint93_linear_44554_169608" x1="199.351" y1="424.243" x2="456.909" y2="366.508" gradientUnits="userSpaceOnUse">
<stop offset="0.1" stop-color="#45108A"/>
<stop offset="1" stop-color="#7C1DC9"/>
</linearGradient>
<linearGradient id="paint94_linear_44554_169608" x1="393.189" y1="406.787" x2="634.93" y2="334.388" gradientUnits="userSpaceOnUse">
<stop offset="0.1" stop-color="#45108A"/>
<stop offset="1" stop-color="#7C1DC9"/>
</linearGradient>
<linearGradient id="paint95_linear_44554_169608" x1="509.878" y1="364.2" x2="641.55" y2="464.103" gradientUnits="userSpaceOnUse">
<stop offset="0.1" stop-color="#45108A"/>
<stop offset="1" stop-color="#7C1DC9"/>
</linearGradient>
<radialGradient id="paint96_radial_44554_169608" cx="0" cy="0" r="1" gradientUnits="userSpaceOnUse" gradientTransform="translate(435.441 190.476) scale(37.8212)">
<stop stop-color="white"/>
<stop offset="1"/>
</radialGradient>
<radialGradient id="paint97_radial_44554_169608" cx="0" cy="0" r="1" gradientUnits="userSpaceOnUse" gradientTransform="translate(412.333 66.9308) scale(93.2655 93.2655)">
<stop stop-color="white"/>
<stop offset="1"/>
</radialGradient>
<radialGradient id="paint98_radial_44554_169608" cx="0" cy="0" r="1" gradientUnits="userSpaceOnUse" gradientTransform="translate(296.094 318.704) scale(48.2045 48.2045)">
<stop stop-color="white"/>
<stop offset="1"/>
</radialGradient>
<radialGradient id="paint99_radial_44554_169608" cx="0" cy="0" r="1" gradientUnits="userSpaceOnUse" gradientTransform="translate(472.911 337.331) scale(32.7549 32.7549)">
<stop stop-color="white"/>
<stop offset="1"/>
</radialGradient>
<radialGradient id="paint100_radial_44554_169608" cx="0" cy="0" r="1" gradientUnits="userSpaceOnUse" gradientTransform="translate(549.455 388.193) scale(51.4314 51.4313)">
<stop stop-color="white"/>
<stop offset="1"/>
</radialGradient>
<radialGradient id="paint101_radial_44554_169608" cx="0" cy="0" r="1" gradientUnits="userSpaceOnUse" gradientTransform="translate(260.346 352.144) scale(58.3536 58.3536)">
<stop stop-color="white"/>
<stop offset="1"/>
</radialGradient>
<radialGradient id="paint102_radial_44554_169608" cx="0" cy="0" r="1" gradientUnits="userSpaceOnUse" gradientTransform="translate(385.949 409.495) scale(47.1176 47.1176)">
<stop stop-color="white"/>
<stop offset="1"/>
</radialGradient>
<radialGradient id="paint103_radial_44554_169608" cx="0" cy="0" r="1" gradientUnits="userSpaceOnUse" gradientTransform="translate(108.827 232.595) scale(53.0366)">
<stop stop-color="white"/>
<stop offset="1"/>
</radialGradient>
<radialGradient id="paint104_radial_44554_169608" cx="0" cy="0" r="1" gradientUnits="userSpaceOnUse" gradientTransform="translate(102.306 247.342) scale(78.1671 78.1671)">
<stop stop-color="white"/>
<stop offset="1"/>
</radialGradient>
<linearGradient id="paint105_linear_44554_169608" x1="159.723" y1="339.37" x2="140.177" y2="343.801" gradientUnits="userSpaceOnUse">
<stop offset="0.04" stop-color="#138BBD"/>
<stop offset="0.23" stop-color="#169AC6"/>
<stop offset="0.59" stop-color="#1EC2DF"/>
<stop offset="1" stop-color="#2AF6FF"/>
</linearGradient>
<linearGradient id="paint106_linear_44554_169608" x1="154.825" y1="414.428" x2="154.825" y2="406.987" gradientUnits="userSpaceOnUse">
<stop offset="0.09" stop-color="#25054D"/>
<stop offset="0.47" stop-color="#320967"/>
<stop offset="0.89" stop-color="#45108A"/>
</linearGradient>
<linearGradient id="paint107_linear_44554_169608" x1="164.505" y1="392.273" x2="147.618" y2="392.273" gradientUnits="userSpaceOnUse">
<stop offset="0.04" stop-color="#138BBD"/>
<stop offset="0.23" stop-color="#169AC6"/>
<stop offset="0.59" stop-color="#1EC2DF"/>
<stop offset="1" stop-color="#2AF6FF"/>
</linearGradient>
<linearGradient id="paint108_linear_44554_169608" x1="171.805" y1="404.488" x2="171.958" y2="395.326" gradientUnits="userSpaceOnUse">
<stop offset="0.09" stop-color="#25054D"/>
<stop offset="0.47" stop-color="#320967"/>
<stop offset="0.89" stop-color="#45108A"/>
</linearGradient>
<linearGradient id="paint109_linear_44554_169608" x1="164.506" y1="382.693" x2="184.905" y2="382.693" gradientUnits="userSpaceOnUse">
<stop offset="0.04" stop-color="#138BBD"/>
<stop offset="0.23" stop-color="#169AC6"/>
<stop offset="0.59" stop-color="#1EC2DF"/>
<stop offset="1" stop-color="#2AF6FF"/>
</linearGradient>
<radialGradient id="paint110_radial_44554_169608" cx="0" cy="0" r="1" gradientUnits="userSpaceOnUse" gradientTransform="translate(170.624 379.231) rotate(180) scale(6.55432 6.55432)">
<stop offset="0.03" stop-color="#FEDFCB"/>
<stop offset="0.78" stop-color="#F9B69E"/>
<stop offset="0.99" stop-color="#F2A78C"/>
</radialGradient>
<radialGradient id="paint111_radial_44554_169608" cx="0" cy="0" r="1" gradientUnits="userSpaceOnUse" gradientTransform="translate(174.746 324.68) rotate(-171.56) scale(9.98196 9.98199)">
<stop offset="0.03" stop-color="#FEDFCB"/>
<stop offset="1" stop-color="#F9B69E"/>
</radialGradient>
<linearGradient id="paint112_linear_44554_169608" x1="165.825" y1="328.985" x2="174.238" y2="318.198" gradientUnits="userSpaceOnUse">
<stop offset="0.04" stop-color="#602213"/>
<stop offset="0.57" stop-color="#6C310D"/>
<stop offset="1" stop-color="#7A4108"/>
</linearGradient>
<linearGradient id="paint113_linear_44554_169608" x1="168.17" y1="335.164" x2="170.783" y2="331.799" gradientUnits="userSpaceOnUse">
<stop offset="0.04" stop-color="#9D9EB3"/>
<stop offset="0.58" stop-color="#D4D1D8"/>
<stop offset="1" stop-color="#EEEBF2"/>
</linearGradient>
<linearGradient id="paint114_linear_44554_169608" x1="177.569" y1="355.778" x2="152.694" y2="352.087" gradientUnits="userSpaceOnUse">
<stop offset="0.04" stop-color="#138BBD"/>
<stop offset="0.23" stop-color="#169AC6"/>
<stop offset="0.59" stop-color="#1EC2DF"/>
<stop offset="1" stop-color="#2AF6FF"/>
</linearGradient>
<linearGradient id="paint115_linear_44554_169608" x1="172.39" y1="345.915" x2="168.628" y2="329.35" gradientUnits="userSpaceOnUse">
<stop offset="0.04" stop-color="#138BBD"/>
<stop offset="0.23" stop-color="#169AC6"/>
<stop offset="0.59" stop-color="#1EC2DF"/>
<stop offset="1" stop-color="#2AF6FF"/>
</linearGradient>
<radialGradient id="paint116_radial_44554_169608" cx="0" cy="0" r="1" gradientUnits="userSpaceOnUse" gradientTransform="translate(169.175 335.905) rotate(-171.56) scale(6.13632 6.13633)">
<stop stop-color="white"/>
<stop offset="1"/>
</radialGradient>
<linearGradient id="paint117_linear_44554_169608" x1="171.11" y1="396.152" x2="159.004" y2="392.524" gradientUnits="userSpaceOnUse">
<stop offset="0.09" stop-color="#25054D"/>
<stop offset="0.47" stop-color="#320967"/>
<stop offset="0.89" stop-color="#45108A"/>
</linearGradient>
<linearGradient id="paint118_linear_44554_169608" x1="198.849" y1="394.999" x2="136.482" y2="381.021" gradientUnits="userSpaceOnUse">
<stop offset="0.09" stop-color="#25054D"/>
<stop offset="0.47" stop-color="#320967"/>
<stop offset="0.89" stop-color="#45108A"/>
</linearGradient>
<linearGradient id="paint119_linear_44554_169608" x1="184.302" y1="394.865" x2="175.875" y2="392.975" gradientUnits="userSpaceOnUse">
<stop offset="0.04" stop-color="#FFA98C"/>
<stop offset="0.32" stop-color="#FEB892"/>
<stop offset="0.86" stop-color="#FEE0A3"/>
<stop offset="1" stop-color="#FEECA8"/>
</linearGradient>
<linearGradient id="paint120_linear_44554_169608" x1="206.389" y1="391.705" x2="151.664" y2="379.432" gradientUnits="userSpaceOnUse">
<stop offset="0.09" stop-color="#25054D"/>
<stop offset="0.47" stop-color="#320967"/>
<stop offset="0.89" stop-color="#45108A"/>
</linearGradient>
<radialGradient id="paint121_radial_44554_169608" cx="0" cy="0" r="1" gradientUnits="userSpaceOnUse" gradientTransform="translate(184.319 399.413) rotate(180) scale(10.9852 10.9852)">
<stop stop-color="white"/>
<stop offset="1"/>
</radialGradient>
<linearGradient id="paint122_linear_44554_169608" x1="176.193" y1="377.392" x2="179.169" y2="383.06" gradientUnits="userSpaceOnUse">
<stop offset="0.09" stop-color="#25054D"/>
<stop offset="0.47" stop-color="#320967"/>
<stop offset="0.89" stop-color="#45108A"/>
</linearGradient>
<linearGradient id="paint123_linear_44554_169608" x1="176.812" y1="384.214" x2="179.621" y2="378.997" gradientUnits="userSpaceOnUse">
<stop offset="0.09" stop-color="#25054D"/>
<stop offset="0.47" stop-color="#320967"/>
<stop offset="0.89" stop-color="#45108A"/>
</linearGradient>
<linearGradient id="paint124_linear_44554_169608" x1="-201.221" y1="603.466" x2="-225.891" y2="611.164" gradientUnits="userSpaceOnUse">
<stop offset="0.09" stop-color="#25054D"/>
<stop offset="0.47" stop-color="#320967"/>
<stop offset="0.89" stop-color="#45108A"/>
</linearGradient>
<radialGradient id="paint125_radial_44554_169608" cx="0" cy="0" r="1" gradientUnits="userSpaceOnUse" gradientTransform="translate(175.825 387.274) rotate(180) scale(6.93891 6.9389)">
<stop stop-color="white"/>
<stop offset="1"/>
</radialGradient>
<radialGradient id="paint126_radial_44554_169608" cx="0" cy="0" r="1" gradientUnits="userSpaceOnUse" gradientTransform="translate(180.84 374.739) rotate(173.56) scale(6.97236 6.97234)">
<stop offset="0.03" stop-color="#FEDFCB"/>
<stop offset="1" stop-color="#F9B69E"/>
</radialGradient>
<linearGradient id="paint127_linear_44554_169608" x1="182.369" y1="359.313" x2="167.054" y2="357.041" gradientUnits="userSpaceOnUse">
<stop offset="0.04" stop-color="#138BBD"/>
<stop offset="0.23" stop-color="#169AC6"/>
<stop offset="0.59" stop-color="#1EC2DF"/>
<stop offset="1" stop-color="#2AF6FF"/>
</linearGradient>
<linearGradient id="paint128_linear_44554_169608" x1="319.084" y1="238.246" x2="225.451" y2="380.937" gradientUnits="userSpaceOnUse">
<stop offset="0.04" stop-color="#138BBD"/>
<stop offset="0.23" stop-color="#169AC6"/>
<stop offset="0.59" stop-color="#1EC2DF"/>
<stop offset="1" stop-color="#2AF6FF"/>
</linearGradient>
</defs>
</svg>
