<svg width="70" height="70" viewBox="0 0 70 70" fill="none" xmlns="http://www.w3.org/2000/svg">
<g clip-path="url(#clip0_47034_5798)">
<mask id="mask0_47034_5798" style="mask-type:luminance" maskUnits="userSpaceOnUse" x="0" y="0" width="70" height="70">
<path d="M0 0H69.1997V69.1997H0V0Z" fill="white"/>
</mask>
<g mask="url(#mask0_47034_5798)">
<path d="M54.4911 6.83425C46.1712 -0.319925 27.7614 -3.86508 13.9614 6.40841C1.01838 15.0504 0.376953 30.8465 0.376953 30.8465C2.58336 39.4885 11.3291 47.7738 28.1846 43.739C26.1938 32.1214 30.0982 2.72486 54.4911 6.83425Z" fill="#00ACD2"/>
<path d="M45.8495 34.9321C36.7445 42.4589 9.02733 53.9434 0.403987 30.8467C-1.65603 41.5992 4.06092 59.5007 19.889 66.2663C33.8753 73.109 48.4525 65.183 48.4525 65.183C54.8641 58.9604 57.7891 47.4519 45.8495 34.9321Z" fill="#C8E9EB"/>
<path d="M29.4004 24.3753C40.499 28.4661 64.2185 46.1945 48.4489 65.1818C58.8289 61.5834 71.0027 47.8074 68.9693 30.7683C67.9313 15.2835 54.5145 6.8332 54.5145 6.8332C45.8965 4.41387 34.3162 7.81796 29.4004 24.3727V24.3753Z" fill="#662D91"/>
</g>
</g>
<defs>
<clipPath id="clip0_47034_5798">
<rect width="69.1997" height="69.1997" fill="white"/>
</clipPath>
</defs>
</svg>
