<svg width="70" height="70" viewBox="0 0 70 70" fill="none" xmlns="http://www.w3.org/2000/svg">
<g clip-path="url(#clip0_47034_5718)">
<path d="M31.7259 0.876002C32.5976 0.393661 33.5775 0.140625 34.5737 0.140625C35.57 0.140625 36.5499 0.393661 37.4216 0.876002C46.0928 5.73062 54.7667 10.5746 63.4353 15.4292C65.0668 16.3368 66.1581 18.136 66.1394 19.9964V49.188C66.1527 51.1256 64.955 52.9647 63.2357 53.8537C54.5911 58.679 45.9544 63.5123 37.3124 68.335C36.4243 68.821 35.4231 69.0623 34.4111 69.0342C33.3991 69.0062 32.4127 68.7098 31.5529 68.1753C28.9632 66.6902 26.3629 65.2104 23.7759 63.7253C23.2436 63.4112 22.6528 63.1637 22.2775 62.6553C22.6049 62.2135 23.1957 62.1576 23.6774 61.9633C24.758 61.6253 25.7534 61.077 26.7462 60.5474C26.9964 60.3771 27.3024 60.4436 27.5446 60.5926C29.759 61.8542 31.9575 63.1477 34.1798 64.3933C34.6536 64.6648 35.1327 64.3081 35.5399 64.0819C44.0195 59.3337 52.5124 54.6069 60.992 49.856C61.1426 49.7812 61.2671 49.6627 61.3493 49.5159C61.4314 49.3692 61.4674 49.2011 61.4525 49.0336C61.4605 39.4042 61.4551 29.7748 61.4578 20.1428C61.473 19.9542 61.4284 19.7656 61.3305 19.6037C61.2326 19.4417 61.0863 19.3147 60.9122 19.2405C52.2995 14.4391 43.6921 9.6271 35.0794 4.82304C34.93 4.72235 34.7539 4.66856 34.5737 4.66856C34.3935 4.66856 34.2175 4.72235 34.068 4.82304C25.458 9.6271 16.848 14.4418 8.23528 19.2485C8.06231 19.3211 7.91655 19.4463 7.81863 19.6063C7.72072 19.7663 7.6756 19.9531 7.68966 20.1401V49.0443C7.66305 49.3823 7.84935 49.707 8.16075 49.8534C10.4576 51.1442 12.7599 52.4244 15.0568 53.7126C16.3529 54.4046 17.9419 54.8118 19.3684 54.2822C20.63 53.835 21.5136 52.5628 21.4897 51.2374C21.5003 41.6639 21.4844 32.0904 21.4977 22.5169C21.471 22.091 21.8729 21.737 22.2908 21.7823C23.3953 21.7716 24.4999 21.7663 25.6071 21.7823C26.0675 21.7716 26.3842 22.2321 26.3257 22.6579C26.323 32.2926 26.339 41.9274 26.3203 51.5621C26.3203 54.1305 25.2557 56.9251 22.8604 58.1786C19.9061 59.6957 16.2491 59.3763 13.3321 57.9205C10.8063 56.6722 8.39231 55.1977 5.91443 53.8616C4.18443 52.9754 2.99473 51.1309 3.00804 49.1907V19.9991C2.98941 18.0987 4.12322 16.2729 5.80264 15.3733L31.7259 0.876002Z" fill="#8CC84B"/>
<path d="M39.2533 21.1028C43.0221 20.8633 47.0569 20.9591 50.4451 22.8009C53.072 24.2088 54.5305 27.1658 54.5757 30.0535C54.5012 30.4448 54.0913 30.6604 53.7161 30.6311C52.6195 30.6311 51.5283 30.6471 50.4344 30.6258C49.9713 30.6417 49.6998 30.2186 49.6413 29.8113C49.3272 28.4274 48.566 27.062 47.2539 26.3966C45.2364 25.3959 42.8996 25.4438 40.6985 25.4651C39.0936 25.5502 37.369 25.6886 36.0063 26.6202C34.963 27.3308 34.6462 28.76 35.0189 29.9125C35.3702 30.7376 36.3336 31.0064 37.1215 31.2512C41.6647 32.4276 46.4767 32.3132 50.9348 33.8595C52.7792 34.493 54.5811 35.7173 55.2119 37.6283C56.0369 40.1966 55.675 43.2574 53.8332 45.3174C52.3427 47.0101 50.1656 47.931 47.9965 48.4314C45.1114 49.0675 42.1145 49.0835 39.1841 48.804C36.4295 48.4899 33.5603 47.774 31.4338 45.9136C29.6186 44.3513 28.7243 41.9106 28.8148 39.5579C28.8361 39.1639 29.2327 38.8845 29.6213 38.9191C30.7205 38.9084 31.8197 38.9058 32.9216 38.9191C33.3634 38.8898 33.6881 39.2651 33.712 39.675C33.9143 40.9924 34.4147 42.3764 35.5751 43.1536C37.8108 44.5828 40.6214 44.4843 43.1844 44.5269C45.3056 44.4338 47.6904 44.4045 49.4204 43.0152C50.3333 42.222 50.6047 40.8966 50.3599 39.7575C50.0937 38.794 49.0744 38.3469 48.2014 38.0514C43.7167 36.6461 38.8488 37.1572 34.4094 35.5682C32.6075 34.9374 30.8642 33.7424 30.1722 31.9086C29.2061 29.3136 29.6479 26.1065 31.6813 24.1157C33.6668 22.1382 36.5279 21.3743 39.2533 21.1028Z" fill="#8CC84B"/>
</g>
<defs>
<clipPath id="clip0_47034_5718">
<rect width="69.1997" height="69.1997" fill="white"/>
</clipPath>
</defs>
</svg>
